<?xml version="1.0" encoding="utf-8" standalone="no"?>
<!DOCTYPE svg PUBLIC "-//W3C//DTD SVG 1.1//EN"
  "http://www.w3.org/Graphics/SVG/1.1/DTD/svg11.dtd">
<svg xmlns:xlink="http://www.w3.org/1999/xlink" width="699.795719pt" height="553.92575pt" viewBox="0 0 699.795719 553.92575" xmlns="http://www.w3.org/2000/svg" version="1.1">
 <metadata>
  <rdf:RDF xmlns:dc="http://purl.org/dc/elements/1.1/" xmlns:cc="http://creativecommons.org/ns#" xmlns:rdf="http://www.w3.org/1999/02/22-rdf-syntax-ns#">
   <cc:Work>
    <dc:type rdf:resource="http://purl.org/dc/dcmitype/StillImage"/>
    <dc:date>2025-04-11T17:21:13.144533</dc:date>
    <dc:format>image/svg+xml</dc:format>
    <dc:creator>
     <cc:Agent>
      <dc:title>Matplotlib v3.8.4, https://matplotlib.org/</dc:title>
     </cc:Agent>
    </dc:creator>
   </cc:Work>
  </rdf:RDF>
 </metadata>
 <defs>
  <style type="text/css">*{stroke-linejoin: round; stroke-linecap: butt}</style>
 </defs>
 <g id="figure_1">
  <g id="patch_1">
   <path d="M 0 553.92575 
L 699.795719 553.92575 
L 699.795719 0 
L 0 0 
L 0 553.92575 
z
" style="fill: none"/>
  </g>
  <g id="axes_1">
   <g id="patch_2">
    <path d="M 82.475 502.072 
L 651.857472 502.072 
L 651.857472 0 
L 82.475 0 
L 82.475 502.072 
z
" style="fill: none"/>
   </g>
   <g id="matplotlib.axis_1">
    <g id="xtick_1">
     <g id="line2d_1">
      <defs>
       <path id="mfe07defea1" d="M 0 0 
L 0 3.5 
" style="stroke: #262626"/>
      </defs>
      <g>
       <use xlink:href="#mfe07defea1" x="84.211136" y="502.072" style="fill: #262626; stroke: #262626"/>
      </g>
     </g>
     <g id="text_1">
      <!-- $\mathdefault{10^{0}}$ -->
      <g style="fill: #262626" transform="translate(69.031136 524.341375)">
       <text>
        <tspan style="font: 22px 'NewComputerModernSans10'" x="0 11" y="-0.71875">10</tspan>
        <tspan style="font: 15.4px 'NewComputerModernSans10'" x="22.170898" y="-7.5546875">0</tspan>
       </text>
      </g>
     </g>
    </g>
    <g id="xtick_2">
     <g id="line2d_2">
      <g>
       <use xlink:href="#mfe07defea1" x="279.201199" y="502.072" style="fill: #262626; stroke: #262626"/>
      </g>
     </g>
     <g id="text_2">
      <!-- $\mathdefault{10^{1}}$ -->
      <g style="fill: #262626" transform="translate(264.021199 524.341375)">
       <text>
        <tspan style="font: 22px 'NewComputerModernSans10'" x="0 11" y="-0.71875">10</tspan>
        <tspan style="font: 15.4px 'NewComputerModernSans10'" x="22.170898" y="-7.5546875">1</tspan>
       </text>
      </g>
     </g>
    </g>
    <g id="xtick_3">
     <g id="line2d_3">
      <g>
       <use xlink:href="#mfe07defea1" x="474.191262" y="502.072" style="fill: #262626; stroke: #262626"/>
      </g>
     </g>
     <g id="text_3">
      <!-- $\mathdefault{10^{2}}$ -->
      <g style="fill: #262626" transform="translate(459.011262 524.341375)">
       <text>
        <tspan style="font: 22px 'NewComputerModernSans10'" x="0 11" y="-0.71875">10</tspan>
        <tspan style="font: 15.4px 'NewComputerModernSans10'" x="22.170898" y="-7.5546875">2</tspan>
       </text>
      </g>
     </g>
    </g>
    <g id="xtick_4">
     <g id="line2d_4"/>
    </g>
    <g id="xtick_5">
     <g id="line2d_5"/>
    </g>
    <g id="xtick_6">
     <g id="line2d_6"/>
    </g>
    <g id="xtick_7">
     <g id="line2d_7"/>
    </g>
    <g id="xtick_8">
     <g id="line2d_8"/>
    </g>
    <g id="xtick_9">
     <g id="line2d_9"/>
    </g>
    <g id="xtick_10">
     <g id="line2d_10"/>
    </g>
    <g id="xtick_11">
     <g id="line2d_11"/>
    </g>
    <g id="xtick_12">
     <g id="line2d_12"/>
    </g>
    <g id="xtick_13">
     <g id="line2d_13"/>
    </g>
    <g id="xtick_14">
     <g id="line2d_14"/>
    </g>
    <g id="xtick_15">
     <g id="line2d_15"/>
    </g>
    <g id="xtick_16">
     <g id="line2d_16"/>
    </g>
    <g id="xtick_17">
     <g id="line2d_17"/>
    </g>
    <g id="xtick_18">
     <g id="line2d_18"/>
    </g>
    <g id="xtick_19">
     <g id="line2d_19"/>
    </g>
    <g id="xtick_20">
     <g id="line2d_20"/>
    </g>
    <g id="xtick_21">
     <g id="line2d_21"/>
    </g>
    <g id="xtick_22">
     <g id="line2d_22"/>
    </g>
    <g id="xtick_23">
     <g id="line2d_23"/>
    </g>
    <g id="xtick_24">
     <g id="line2d_24"/>
    </g>
    <g id="xtick_25">
     <g id="line2d_25"/>
    </g>
    <g id="xtick_26">
     <g id="line2d_26"/>
    </g>
    <g id="text_4">
     <text style="fill: #262626; font: 24px 'NewComputerModernSans10', sans-serif, 'NewComputerModernMath', serif; text-anchor: middle" x="367.166236" y="549.26825" transform="rotate(-0 367.166236 549.26825)">rank</text>
    </g>
   </g>
   <g id="matplotlib.axis_2">
    <g id="ytick_1">
     <g id="line2d_27">
      <defs>
       <path id="m6fc3b1941e" d="M 0 0 
L -3.5 0 
" style="stroke: #262626"/>
      </defs>
      <g>
       <use xlink:href="#m6fc3b1941e" x="82.475" y="502.072" style="fill: #262626; stroke: #262626"/>
      </g>
     </g>
     <g id="text_5">
      <!-- $\mathdefault{10^{-10}}$ -->
      <g style="fill: #262626" transform="translate(25.315 509.706687)">
       <text>
        <tspan style="font: 22px 'NewComputerModernSans10'" x="0 11" y="-0.71875">10</tspan>
        <tspan style="font: 15.4px 'NewComputerModernSans10'" x="22.170898 34.152097 41.852097" y="-7.5546875">−10</tspan>
       </text>
      </g>
     </g>
    </g>
    <g id="ytick_2">
     <g id="line2d_28">
      <g>
       <use xlink:href="#m6fc3b1941e" x="82.475" y="390.500444" style="fill: #262626; stroke: #262626"/>
      </g>
     </g>
     <g id="text_6">
      <!-- $\mathdefault{10^{-8}}$ -->
      <g style="fill: #262626" transform="translate(33.015 398.135132)">
       <text>
        <tspan style="font: 22px 'NewComputerModernSans10'" x="0 11" y="-0.71875">10</tspan>
        <tspan style="font: 15.4px 'NewComputerModernSans10'" x="22.170898 34.152097" y="-7.5546875">−8</tspan>
       </text>
      </g>
     </g>
    </g>
    <g id="ytick_3">
     <g id="line2d_29">
      <g>
       <use xlink:href="#m6fc3b1941e" x="82.475" y="278.928889" style="fill: #262626; stroke: #262626"/>
      </g>
     </g>
     <g id="text_7">
      <!-- $\mathdefault{10^{-6}}$ -->
      <g style="fill: #262626" transform="translate(33.015 286.563576)">
       <text>
        <tspan style="font: 22px 'NewComputerModernSans10'" x="0 11" y="-0.71875">10</tspan>
        <tspan style="font: 15.4px 'NewComputerModernSans10'" x="22.170898 34.152097" y="-7.5546875">−6</tspan>
       </text>
      </g>
     </g>
    </g>
    <g id="ytick_4">
     <g id="line2d_30">
      <g>
       <use xlink:href="#m6fc3b1941e" x="82.475" y="167.357333" style="fill: #262626; stroke: #262626"/>
      </g>
     </g>
     <g id="text_8">
      <!-- $\mathdefault{10^{-4}}$ -->
      <g style="fill: #262626" transform="translate(33.015 174.992021)">
       <text>
        <tspan style="font: 22px 'NewComputerModernSans10'" x="0 11" y="-0.05781250000000071">10</tspan>
        <tspan style="font: 15.4px 'NewComputerModernSans10'" x="22.170898 34.152097" y="-6.893750000000001">−4</tspan>
       </text>
      </g>
     </g>
    </g>
    <g id="ytick_5">
     <g id="line2d_31">
      <g>
       <use xlink:href="#m6fc3b1941e" x="82.475" y="55.785778" style="fill: #262626; stroke: #262626"/>
      </g>
     </g>
     <g id="text_9">
      <!-- $\mathdefault{10^{-2}}$ -->
      <g style="fill: #262626" transform="translate(33.015 63.420465)">
       <text>
        <tspan style="font: 22px 'NewComputerModernSans10'" x="0 11" y="-0.71875">10</tspan>
        <tspan style="font: 15.4px 'NewComputerModernSans10'" x="22.170898 34.152097" y="-7.5546875">−2</tspan>
       </text>
      </g>
     </g>
    </g>
    <g id="text_10">
     <text style="fill: #262626; font: 24px 'NewComputerModernSans10', sans-serif, 'NewComputerModernMath', serif; text-anchor: middle" x="16.6575" y="251.036" transform="rotate(-90 16.6575 251.036)">covariance</text>
    </g>
   </g>
   <g id="PolyCollection_1">
    <defs>
     <path id="m283240bbf9" d="M 119.675941 -417.682648 
L 119.651807 -417.682648 
L 119.653094 -418.835196 
L 119.656043 -419.987744 
L 119.658557 -421.140291 
L 119.658711 -422.292839 
L 119.655367 -423.445387 
L 119.648237 -424.597935 
L 119.638072 -425.750483 
L 119.626866 -426.903031 
L 119.617396 -428.055578 
L 119.611922 -429.208126 
L 119.611015 -430.360674 
L 119.613832 -431.513222 
L 119.619394 -432.66577 
L 119.626992 -433.818317 
L 119.635405 -434.970865 
L 119.642549 -436.123413 
L 119.646458 -437.275961 
L 119.646602 -438.428509 
L 119.644034 -439.581057 
L 119.640316 -440.733604 
L 119.636758 -441.886152 
L 119.634367 -443.0387 
L 119.633272 -444.191248 
L 119.631863 -445.343796 
L 119.627955 -446.496344 
L 119.621845 -447.648891 
L 119.617314 -448.801439 
L 119.618302 -449.953987 
L 119.624476 -451.106535 
L 119.630801 -452.259083 
L 119.631924 -453.411631 
L 119.626832 -454.564178 
L 119.618655 -455.716726 
L 119.609641 -456.869274 
L 119.597248 -458.021822 
L 119.576788 -459.17437 
L 119.548277 -460.326918 
L 119.519282 -461.479465 
L 119.499571 -462.632013 
L 119.492981 -463.784561 
L 119.495034 -464.937109 
L 119.497646 -466.089657 
L 119.49477 -467.242205 
L 119.484342 -468.394752 
L 119.467373 -469.5473 
L 119.446429 -470.699848 
L 119.424093 -471.852396 
L 119.401707 -473.004944 
L 119.379078 -474.157492 
L 119.355267 -475.310039 
L 119.329563 -476.462587 
L 119.301147 -477.615135 
L 119.267759 -478.767683 
L 119.226321 -479.920231 
L 119.176028 -481.072779 
L 119.11859 -482.225326 
L 119.051931 -483.377874 
L 118.963971 -484.530422 
L 118.836843 -485.68297 
L 118.661308 -486.835518 
L 118.448292 -487.988066 
L 118.222995 -489.140613 
L 118.000803 -490.293161 
L 117.767595 -491.445709 
L 117.491431 -492.598257 
L 117.156025 -493.750805 
L 116.773771 -494.903353 
L 116.364419 -496.0559 
L 115.935218 -497.208448 
L 115.489983 -498.360996 
L 115.04407 -499.513544 
L 114.612582 -500.666092 
L 114.185355 -501.81864 
L 113.731988 -502.971187 
L 113.242409 -504.123735 
L 112.752015 -505.276283 
L 112.310034 -506.428831 
L 111.919336 -507.581379 
L 111.515153 -508.733927 
L 111.011125 -509.886474 
L 110.373528 -511.039022 
L 109.660767 -512.19157 
L 109.001223 -513.344118 
L 108.533781 -514.496666 
L 108.356021 -515.649214 
L 108.509763 -516.801761 
L 108.997812 -517.954309 
L 109.80113 -519.106857 
L 110.879798 -520.259405 
L 112.167301 -521.411953 
L 113.569314 -522.564501 
L 114.970414 -523.717048 
L 116.252018 -524.869596 
L 117.319761 -526.022144 
L 118.128057 -527.174692 
L 118.688416 -528.32724 
L 119.054942 -529.479787 
L 119.292739 -530.632335 
L 119.450025 -531.784883 
L 119.877186 -531.784883 
L 119.877186 -531.784883 
L 120.033391 -530.632335 
L 120.26846 -529.479787 
L 120.628225 -528.32724 
L 121.172334 -527.174692 
L 121.944845 -526.022144 
L 122.943576 -524.869596 
L 124.11081 -523.717048 
L 125.34911 -522.564501 
L 126.550449 -521.411953 
L 127.621813 -520.259405 
L 128.496834 -519.106857 
L 129.135553 -517.954309 
L 129.518339 -516.801761 
L 129.638108 -515.649214 
L 129.499593 -514.496666 
L 129.132865 -513.344118 
L 128.609223 -512.19157 
L 128.035017 -511.039022 
L 127.513892 -509.886474 
L 127.096847 -508.733927 
L 126.759117 -507.581379 
L 126.429824 -506.428831 
L 126.05391 -505.276283 
L 125.63254 -504.123735 
L 125.207306 -502.971187 
L 124.8094 -501.81864 
L 124.430747 -500.666092 
L 124.044636 -499.513544 
L 123.64167 -498.360996 
L 123.235257 -497.208448 
L 122.839582 -496.0559 
L 122.45859 -494.903353 
L 122.099588 -493.750805 
L 121.781979 -492.598257 
L 121.518621 -491.445709 
L 121.294914 -490.293161 
L 121.080648 -489.140613 
L 120.862255 -487.988066 
L 120.654711 -486.835518 
L 120.482908 -485.68297 
L 120.358042 -484.530422 
L 120.271429 -483.377874 
L 120.205671 -482.225326 
L 120.148928 -481.072779 
L 120.09918 -479.920231 
L 120.058146 -478.767683 
L 120.025056 -477.615135 
L 119.996872 -476.462587 
L 119.971362 -475.310039 
L 119.947717 -474.157492 
L 119.925234 -473.004944 
L 119.90298 -471.852396 
L 119.880763 -470.699848 
L 119.859922 -469.5473 
L 119.843028 -468.394752 
L 119.832642 -467.242205 
L 119.829778 -466.089657 
L 119.83238 -464.937109 
L 119.834425 -463.784561 
L 119.82786 -462.632013 
L 119.808222 -461.479465 
L 119.779315 -460.326918 
L 119.750873 -459.17437 
L 119.73045 -458.021822 
L 119.718074 -456.869274 
L 119.70907 -455.716726 
L 119.700902 -454.564178 
L 119.695814 -453.411631 
L 119.696936 -452.259083 
L 119.703255 -451.106535 
L 119.709423 -449.953987 
L 119.71041 -448.801439 
L 119.705884 -447.648891 
L 119.699779 -446.496344 
L 119.695875 -445.343796 
L 119.694467 -444.191248 
L 119.693373 -443.0387 
L 119.690983 -441.886152 
L 119.687427 -440.733604 
L 119.683712 -439.581057 
L 119.681144 -438.428509 
L 119.681288 -437.275961 
L 119.685195 -436.123413 
L 119.692335 -434.970865 
L 119.700742 -433.818317 
L 119.708332 -432.66577 
L 119.713888 -431.513222 
L 119.716702 -430.360674 
L 119.715796 -429.208126 
L 119.710328 -428.055578 
L 119.700867 -426.903031 
L 119.68967 -425.750483 
L 119.67951 -424.597935 
L 119.672382 -423.445387 
L 119.669038 -422.292839 
L 119.669192 -421.140291 
L 119.671706 -419.987744 
L 119.674655 -418.835196 
L 119.675941 -417.682648 
z
"/>
    </defs>
    <g clip-path="url(#p8f7c5bb1f6)">
     <use xlink:href="#m283240bbf9" x="0" y="553.92575" style="fill: #2c115f; fill-opacity: 0.8"/>
    </g>
   </g>
   <g id="PolyCollection_2">
    <defs>
     <path id="m1c71060bce" d="M 190.574586 -233.701119 
L 190.564118 -233.701119 
L 190.566117 -236.433445 
L 190.568589 -239.16577 
L 190.569283 -241.898096 
L 190.56935 -244.630421 
L 190.569352 -247.362747 
L 190.569352 -250.095073 
L 190.569352 -252.827398 
L 190.569352 -255.559724 
L 190.569352 -258.292049 
L 190.569352 -261.024375 
L 190.569352 -263.756701 
L 190.569352 -266.489026 
L 190.569352 -269.221352 
L 190.569337 -271.953677 
L 190.569085 -274.686003 
L 190.567542 -277.418329 
L 190.564679 -280.150654 
L 190.564744 -282.88298 
L 190.567617 -285.615305 
L 190.569103 -288.347631 
L 190.569339 -291.079956 
L 190.569352 -293.812282 
L 190.569352 -296.544608 
L 190.569352 -299.276933 
L 190.569352 -302.009259 
L 190.569352 -304.741584 
L 190.569352 -307.47391 
L 190.569352 -310.206236 
L 190.569351 -312.938561 
L 190.569308 -315.670887 
L 190.568657 -318.403212 
L 190.565163 -321.135538 
L 190.559586 -323.867864 
L 190.560058 -326.600189 
L 190.563478 -329.332515 
L 190.563533 -332.06484 
L 190.564015 -334.797166 
L 190.562761 -337.529491 
L 190.559639 -340.261817 
L 190.557203 -342.994143 
L 190.556383 -345.726468 
L 190.560615 -348.458794 
L 190.56412 -351.191119 
L 190.56033 -353.923445 
L 190.556779 -356.655771 
L 190.556342 -359.388096 
L 190.556148 -362.120422 
L 190.552736 -364.852747 
L 190.540088 -367.585073 
L 190.530832 -370.317399 
L 190.528596 -373.049724 
L 190.522414 -375.78205 
L 190.520224 -378.514375 
L 190.528874 -381.246701 
L 190.529369 -383.979026 
L 190.512683 -386.711352 
L 190.495547 -389.443678 
L 190.488703 -392.176003 
L 190.479215 -394.908329 
L 190.472334 -397.640654 
L 190.470074 -400.37298 
L 190.457936 -403.105306 
L 190.450345 -405.837631 
L 190.440985 -408.569957 
L 190.412499 -411.302282 
L 190.382496 -414.034608 
L 190.352549 -416.766934 
L 190.289574 -419.499259 
L 190.213262 -422.231585 
L 190.158733 -424.96391 
L 190.095476 -427.696236 
L 190.027903 -430.428561 
L 189.949722 -433.160887 
L 189.818792 -435.893213 
L 189.626812 -438.625538 
L 189.411303 -441.357864 
L 189.190257 -444.090189 
L 188.846818 -446.822515 
L 188.35652 -449.554841 
L 187.830145 -452.287166 
L 187.148282 -455.019492 
L 186.23011 -457.751817 
L 185.292985 -460.484143 
L 184.380351 -463.216468 
L 183.302234 -465.948794 
L 181.968191 -468.68112 
L 180.645965 -471.413445 
L 179.766123 -474.145771 
L 179.318111 -476.878096 
L 179.261499 -479.610422 
L 179.68457 -482.342748 
L 180.553886 -485.075073 
L 181.819374 -487.807399 
L 183.475514 -490.539724 
L 185.525155 -493.27205 
L 187.529457 -496.004376 
L 189.006102 -498.736701 
L 189.910579 -501.469027 
L 190.359746 -504.201352 
L 190.778441 -504.201352 
L 190.778441 -504.201352 
L 191.223041 -501.469027 
L 192.104267 -498.736701 
L 193.503895 -496.004376 
L 195.329906 -493.27205 
L 197.114604 -490.539724 
L 198.499299 -487.807399 
L 199.52458 -485.075073 
L 200.213063 -482.342748 
L 200.543586 -479.610422 
L 200.499528 -476.878096 
L 200.149011 -474.145771 
L 199.450909 -471.413445 
L 198.376892 -468.68112 
L 197.261828 -465.948794 
L 196.336678 -463.216468 
L 195.536158 -460.484143 
L 194.697044 -457.751817 
L 193.857566 -455.019492 
L 193.222725 -452.287166 
L 192.725831 -449.554841 
L 192.257546 -446.822515 
L 191.926348 -444.090189 
L 191.711778 -441.357864 
L 191.501517 -438.625538 
L 191.313318 -435.893213 
L 191.184481 -433.160887 
L 191.107362 -430.428561 
L 191.040592 -427.696236 
L 190.97799 -424.96391 
L 190.923952 -422.231585 
L 190.84821 -419.499259 
L 190.785602 -416.766934 
L 190.755798 -414.034608 
L 190.725916 -411.302282 
L 190.697525 -408.569957 
L 190.688193 -405.837631 
L 190.680623 -403.105306 
L 190.668514 -400.37298 
L 190.66626 -397.640654 
L 190.659394 -394.908329 
L 190.649925 -392.176003 
L 190.643093 -389.443678 
L 190.625984 -386.711352 
L 190.609316 -383.979026 
L 190.609811 -381.246701 
L 190.618452 -378.514375 
L 190.616264 -375.78205 
L 190.610089 -373.049724 
L 190.607855 -370.317399 
L 190.598607 -367.585073 
L 190.585965 -364.852747 
L 190.582555 -362.120422 
L 190.58236 -359.388096 
L 190.581924 -356.655771 
L 190.578374 -353.923445 
L 190.574584 -351.191119 
L 190.578089 -348.458794 
L 190.582319 -345.726468 
L 190.5815 -342.994143 
L 190.579064 -340.261817 
L 190.575943 -337.529491 
L 190.574689 -334.797166 
L 190.575172 -332.06484 
L 190.575226 -329.332515 
L 190.578645 -326.600189 
L 190.579117 -323.867864 
L 190.573542 -321.135538 
L 190.570048 -318.403212 
L 190.569397 -315.670887 
L 190.569353 -312.938561 
L 190.569352 -310.206236 
L 190.569352 -307.47391 
L 190.569352 -304.741584 
L 190.569352 -302.009259 
L 190.569352 -299.276933 
L 190.569352 -296.544608 
L 190.569353 -293.812282 
L 190.569366 -291.079956 
L 190.569602 -288.347631 
L 190.571088 -285.615305 
L 190.57396 -282.88298 
L 190.574025 -280.150654 
L 190.571162 -277.418329 
L 190.56962 -274.686003 
L 190.569367 -271.953677 
L 190.569353 -269.221352 
L 190.569352 -266.489026 
L 190.569352 -263.756701 
L 190.569352 -261.024375 
L 190.569352 -258.292049 
L 190.569352 -255.559724 
L 190.569352 -252.827398 
L 190.569352 -250.095073 
L 190.569352 -247.362747 
L 190.569355 -244.630421 
L 190.569421 -241.898096 
L 190.570116 -239.16577 
L 190.572587 -236.433445 
L 190.574586 -233.701119 
z
"/>
    </defs>
    <g clip-path="url(#p8f7c5bb1f6)">
     <use xlink:href="#m1c71060bce" x="0" y="553.92575" style="fill: #2c115f; fill-opacity: 0.8"/>
    </g>
   </g>
   <g id="PolyCollection_3">
    <defs>
     <path id="ma26f55927b" d="M 261.477545 -232.446392 
L 261.472114 -232.446392 
L 261.472943 -235.021578 
L 261.474197 -237.596765 
L 261.474728 -240.171951 
L 261.474822 -242.747137 
L 261.474824 -245.322323 
L 261.474748 -247.897509 
L 261.474213 -250.472695 
L 261.47246 -253.047881 
L 261.470052 -255.623067 
L 261.469313 -258.198253 
L 261.469945 -260.773439 
L 261.469621 -263.348625 
L 261.468189 -265.923811 
L 261.467283 -268.498997 
L 261.468252 -271.074183 
L 261.469262 -273.649369 
L 261.468016 -276.224555 
L 261.466406 -278.799741 
L 261.465509 -281.374927 
L 261.461901 -283.950113 
L 261.457327 -286.525299 
L 261.457398 -289.100485 
L 261.460816 -291.675671 
L 261.464299 -294.250857 
L 261.465953 -296.826043 
L 261.464418 -299.401229 
L 261.461802 -301.976415 
L 261.458382 -304.551601 
L 261.455705 -307.126788 
L 261.4571 -309.701974 
L 261.458865 -312.27716 
L 261.455684 -314.852346 
L 261.44926 -317.427532 
L 261.441694 -320.002718 
L 261.435241 -322.577904 
L 261.432647 -325.15309 
L 261.426082 -327.728276 
L 261.41308 -330.303462 
L 261.405157 -332.878648 
L 261.402136 -335.453834 
L 261.396664 -338.02902 
L 261.393136 -340.604206 
L 261.394119 -343.179392 
L 261.390414 -345.754578 
L 261.374155 -348.329764 
L 261.343948 -350.90495 
L 261.31029 -353.480136 
L 261.282976 -356.055322 
L 261.261831 -358.630508 
L 261.248004 -361.205694 
L 261.233433 -363.78088 
L 261.202935 -366.356066 
L 261.153414 -368.931252 
L 261.092661 -371.506438 
L 261.034954 -374.081624 
L 260.975722 -376.656811 
L 260.89929 -379.231997 
L 260.811958 -381.807183 
L 260.725154 -384.382369 
L 260.618536 -386.957555 
L 260.473051 -389.532741 
L 260.319429 -392.107927 
L 260.194698 -394.683113 
L 260.059082 -397.258299 
L 259.813279 -399.833485 
L 259.444832 -402.408671 
L 259.025792 -404.983857 
L 258.583801 -407.559043 
L 258.068565 -410.134229 
L 257.467244 -412.709415 
L 256.818968 -415.284601 
L 256.07465 -417.859787 
L 255.158066 -420.434973 
L 254.141584 -423.010159 
L 253.15511 -425.585345 
L 252.194038 -428.160531 
L 251.262896 -430.735717 
L 250.518042 -433.310903 
L 250.166976 -435.886089 
L 250.399302 -438.461275 
L 251.169151 -441.036461 
L 252.10096 -443.611647 
L 252.904409 -446.186833 
L 253.663185 -448.76202 
L 254.527864 -451.337206 
L 255.441402 -453.912392 
L 256.28202 -456.487578 
L 256.965919 -459.062764 
L 257.525727 -461.63795 
L 258.080743 -464.213136 
L 258.672998 -466.788322 
L 259.275746 -469.363508 
L 259.861726 -471.938694 
L 260.395019 -474.51388 
L 260.836212 -477.089066 
L 261.145449 -479.664252 
L 261.328373 -482.239438 
L 261.422298 -484.814624 
L 261.459175 -487.38981 
L 261.490481 -487.38981 
L 261.490481 -487.38981 
L 261.527329 -484.814624 
L 261.621034 -482.239438 
L 261.802935 -479.664252 
L 262.108668 -477.089066 
L 262.541045 -474.51388 
L 263.05778 -471.938694 
L 263.61825 -469.363508 
L 264.186921 -466.788322 
L 264.738108 -464.213136 
L 265.247947 -461.63795 
L 265.755754 -459.062764 
L 266.367528 -456.487578 
L 267.106835 -453.912392 
L 267.894857 -451.337206 
L 268.62635 -448.76202 
L 269.257036 -446.186833 
L 269.913712 -443.611647 
L 270.661311 -441.036461 
L 271.267924 -438.461275 
L 271.449063 -435.886089 
L 271.175002 -433.310903 
L 270.586767 -430.735717 
L 269.838215 -428.160531 
L 269.049799 -425.585345 
L 268.223343 -423.010159 
L 267.352939 -420.434973 
L 266.551191 -417.859787 
L 265.887999 -415.284601 
L 265.301298 -412.709415 
L 264.749364 -410.134229 
L 264.27041 -407.559043 
L 263.855028 -404.983857 
L 263.457302 -402.408671 
L 263.104406 -399.833485 
L 262.867298 -397.258299 
L 262.735898 -394.683113 
L 262.614678 -392.107927 
L 262.464897 -389.532741 
L 262.322552 -386.957555 
L 262.217927 -384.382369 
L 262.132553 -381.807183 
L 262.046485 -379.231997 
L 261.971013 -376.656811 
L 261.912432 -374.081624 
L 261.855282 -371.506438 
L 261.79503 -368.931252 
L 261.745855 -366.356066 
L 261.715541 -363.78088 
L 261.701049 -361.205694 
L 261.687294 -358.630508 
L 261.666249 -356.055322 
L 261.639051 -353.480136 
L 261.60551 -350.90495 
L 261.575386 -348.329764 
L 261.559162 -345.754578 
L 261.555464 -343.179392 
L 261.556445 -340.604206 
L 261.552923 -338.02902 
L 261.547462 -335.453834 
L 261.544445 -332.878648 
L 261.536534 -330.303462 
L 261.523549 -327.728276 
L 261.516992 -325.15309 
L 261.5144 -322.577904 
L 261.507953 -320.002718 
L 261.500392 -317.427532 
L 261.493971 -314.852346 
L 261.490792 -312.27716 
L 261.492555 -309.701974 
L 261.49395 -307.126788 
L 261.491275 -304.551601 
L 261.487856 -301.976415 
L 261.48524 -299.401229 
L 261.483705 -296.826043 
L 261.485359 -294.250857 
L 261.488841 -291.675671 
L 261.492258 -289.100485 
L 261.492329 -286.525299 
L 261.487757 -283.950113 
L 261.48415 -281.374927 
L 261.483253 -278.799741 
L 261.481644 -276.224555 
L 261.480397 -273.649369 
L 261.481407 -271.074183 
L 261.482376 -268.498997 
L 261.481471 -265.923811 
L 261.480039 -263.348625 
L 261.479714 -260.773439 
L 261.480346 -258.198253 
L 261.479607 -255.623067 
L 261.477199 -253.047881 
L 261.475446 -250.472695 
L 261.474911 -247.897509 
L 261.474836 -245.322323 
L 261.474838 -242.747137 
L 261.474932 -240.171951 
L 261.475462 -237.596765 
L 261.476716 -235.021578 
L 261.477545 -232.446392 
z
"/>
    </defs>
    <g clip-path="url(#p8f7c5bb1f6)">
     <use xlink:href="#ma26f55927b" x="0" y="553.92575" style="fill: #2c115f; fill-opacity: 0.8"/>
    </g>
   </g>
   <g id="PolyCollection_4">
    <defs>
     <path id="m3938300fd3" d="M 332.38183 -164.939342 
L 332.378785 -164.939342 
L 332.379472 -167.969778 
L 332.380169 -171.000213 
L 332.3803 -174.030648 
L 332.380307 -177.061083 
L 332.380306 -180.091519 
L 332.380266 -183.121954 
L 332.379871 -186.152389 
L 332.378858 -189.182825 
L 332.378328 -192.21326 
L 332.37844 -195.243695 
L 332.379312 -198.274131 
L 332.380121 -201.304566 
L 332.380296 -204.335001 
L 332.380307 -207.365436 
L 332.380298 -210.395872 
L 332.380077 -213.426307 
L 332.378295 -216.456742 
L 332.373513 -219.487178 
L 332.369515 -222.517613 
L 332.371776 -225.548048 
L 332.37702 -228.578484 
L 332.378223 -231.608919 
L 332.377129 -234.639354 
L 332.375015 -237.669789 
L 332.372075 -240.700225 
L 332.370223 -243.73066 
L 332.368982 -246.761095 
L 332.367117 -249.791531 
L 332.367309 -252.821966 
L 332.367034 -255.852401 
L 332.366154 -258.882836 
L 332.363396 -261.913272 
L 332.361816 -264.943707 
L 332.359483 -267.974142 
L 332.351055 -271.004578 
L 332.343221 -274.035013 
L 332.343502 -277.065448 
L 332.3403 -280.095884 
L 332.334299 -283.126319 
L 332.320883 -286.156754 
L 332.302915 -289.187189 
L 332.29592 -292.217625 
L 332.291749 -295.24806 
L 332.28571 -298.278495 
L 332.284003 -301.308931 
L 332.272935 -304.339366 
L 332.24847 -307.369801 
L 332.233298 -310.400237 
L 332.220381 -313.430672 
L 332.188376 -316.461107 
L 332.150373 -319.491542 
L 332.125504 -322.521978 
L 332.103849 -325.552413 
L 332.066671 -328.582848 
L 332.009668 -331.613284 
L 331.93655 -334.643719 
L 331.87359 -337.674154 
L 331.814944 -340.70459 
L 331.724168 -343.735025 
L 331.603209 -346.76546 
L 331.452678 -349.795895 
L 331.300444 -352.826331 
L 331.118247 -355.856766 
L 330.927204 -358.887201 
L 330.694913 -361.917637 
L 330.343296 -364.948072 
L 329.915885 -367.978507 
L 329.486641 -371.008943 
L 329.019243 -374.039378 
L 328.411781 -377.069813 
L 327.644251 -380.100248 
L 326.864528 -383.130684 
L 326.056969 -386.161119 
L 325.064205 -389.191554 
L 323.968034 -392.22199 
L 322.95798 -395.252425 
L 322.163789 -398.28286 
L 321.550096 -401.313296 
L 321.126626 -404.343731 
L 321.072454 -407.374166 
L 321.35974 -410.404601 
L 321.985416 -413.435037 
L 322.897491 -416.465472 
L 324.0281 -419.495907 
L 325.212936 -422.526343 
L 326.469129 -425.556778 
L 327.739672 -428.587213 
L 328.888823 -431.617649 
L 329.878776 -434.648084 
L 330.654493 -437.678519 
L 331.263638 -440.708954 
L 331.711935 -443.73939 
L 331.981625 -446.769825 
L 332.144449 -449.80026 
L 332.245941 -452.830696 
L 332.307907 -455.861131 
L 332.349425 -458.891566 
L 332.367398 -461.922002 
L 332.374054 -464.952437 
L 332.38656 -464.952437 
L 332.38656 -464.952437 
L 332.393215 -461.922002 
L 332.411179 -458.891566 
L 332.452646 -455.861131 
L 332.514461 -452.830696 
L 332.61551 -449.80026 
L 332.777122 -446.769825 
L 333.043446 -443.73939 
L 333.482443 -440.708954 
L 334.071651 -437.678519 
L 334.810059 -434.648084 
L 335.733519 -431.617649 
L 336.779794 -428.587213 
L 337.905651 -425.556778 
L 338.988103 -422.526343 
L 339.982195 -419.495907 
L 340.907366 -416.465472 
L 341.637591 -413.435037 
L 342.130421 -410.404601 
L 342.354541 -407.374166 
L 342.312383 -404.343731 
L 341.98117 -401.313296 
L 341.495893 -398.28286 
L 340.858434 -395.252425 
L 340.031914 -392.22199 
L 339.114301 -389.191554 
L 338.264108 -386.161119 
L 337.558684 -383.130684 
L 336.865461 -380.100248 
L 336.171151 -377.069813 
L 335.613048 -374.039378 
L 335.178354 -371.008943 
L 334.775034 -367.978507 
L 334.369468 -364.948072 
L 334.032812 -361.917637 
L 333.808897 -358.887201 
L 333.623835 -355.856766 
L 333.446573 -352.826331 
L 333.297885 -349.795895 
L 333.150339 -346.76546 
L 333.031401 -343.735025 
L 332.941921 -340.70459 
L 332.884011 -337.674154 
L 332.821751 -334.643719 
L 332.749331 -331.613284 
L 332.692786 -328.582848 
L 332.655866 -325.552413 
L 332.634346 -322.521978 
L 332.609619 -319.491542 
L 332.571805 -316.461107 
L 332.539932 -313.430672 
L 332.527062 -310.400237 
L 332.51194 -307.369801 
L 332.487543 -304.339366 
L 332.476502 -301.308931 
L 332.474799 -298.278495 
L 332.468773 -295.24806 
L 332.46461 -292.217625 
L 332.457629 -289.187189 
L 332.43969 -286.156754 
L 332.42629 -283.126319 
L 332.420296 -280.095884 
L 332.417096 -277.065448 
L 332.417377 -274.035013 
L 332.409549 -271.004578 
L 332.401126 -267.974142 
L 332.398795 -264.943707 
L 332.397215 -261.913272 
L 332.394458 -258.882836 
L 332.393578 -255.852401 
L 332.393304 -252.821966 
L 332.393496 -249.791531 
L 332.391631 -246.761095 
L 332.39039 -243.73066 
L 332.388538 -240.700225 
L 332.385599 -237.669789 
L 332.383485 -234.639354 
L 332.382391 -231.608919 
L 332.383594 -228.578484 
L 332.388838 -225.548048 
L 332.391099 -222.517613 
L 332.387101 -219.487178 
L 332.382319 -216.456742 
L 332.380537 -213.426307 
L 332.380316 -210.395872 
L 332.380308 -207.365436 
L 332.380318 -204.335001 
L 332.380494 -201.304566 
L 332.381303 -198.274131 
L 332.382175 -195.243695 
L 332.382287 -192.21326 
L 332.381756 -189.182825 
L 332.380743 -186.152389 
L 332.380349 -183.121954 
L 332.380308 -180.091519 
L 332.380307 -177.061083 
L 332.380314 -174.030648 
L 332.380445 -171.000213 
L 332.381143 -167.969778 
L 332.38183 -164.939342 
z
"/>
    </defs>
    <g clip-path="url(#p8f7c5bb1f6)">
     <use xlink:href="#m3938300fd3" x="0" y="553.92575" style="fill: #2c115f; fill-opacity: 0.8"/>
    </g>
   </g>
   <g id="PolyCollection_5">
    <defs>
     <path id="md3b6713af9" d="M 403.286644 -70.582286 
L 403.284925 -70.582286 
L 403.285457 -74.191998 
L 403.285767 -77.801711 
L 403.285785 -81.411423 
L 403.285785 -85.021135 
L 403.285785 -88.630848 
L 403.285785 -92.24056 
L 403.285785 -95.850272 
L 403.285785 -99.459985 
L 403.285785 -103.069697 
L 403.285785 -106.679409 
L 403.285778 -110.289122 
L 403.285593 -113.898834 
L 403.284974 -117.508546 
L 403.285278 -121.118259 
L 403.285414 -124.727971 
L 403.284228 -128.337683 
L 403.284691 -131.947396 
L 403.285671 -135.557108 
L 403.285782 -139.166821 
L 403.285724 -142.776533 
L 403.285218 -146.386245 
L 403.285017 -149.995958 
L 403.285576 -153.60567 
L 403.285027 -157.215382 
L 403.283748 -160.825095 
L 403.283425 -164.434807 
L 403.283269 -168.044519 
L 403.282525 -171.654232 
L 403.282525 -175.263944 
L 403.283434 -178.873656 
L 403.282477 -182.483369 
L 403.282298 -186.093081 
L 403.281854 -189.702794 
L 403.279684 -193.312506 
L 403.276955 -196.922218 
L 403.275587 -200.531931 
L 403.274038 -204.141643 
L 403.273735 -207.751355 
L 403.269168 -211.361068 
L 403.258253 -214.97078 
L 403.253438 -218.580492 
L 403.254148 -222.190205 
L 403.25231 -225.799917 
L 403.251038 -229.409629 
L 403.244687 -233.019342 
L 403.235282 -236.629054 
L 403.229046 -240.238766 
L 403.218996 -243.848479 
L 403.20524 -247.458191 
L 403.200392 -251.067904 
L 403.187535 -254.677616 
L 403.161849 -258.287328 
L 403.135722 -261.897041 
L 403.116652 -265.506753 
L 403.091651 -269.116465 
L 403.064939 -272.726178 
L 403.028098 -276.33589 
L 402.97551 -279.945602 
L 402.893338 -283.555315 
L 402.813784 -287.165027 
L 402.74413 -290.774739 
L 402.640519 -294.384452 
L 402.57713 -297.994164 
L 402.501462 -301.603876 
L 402.33368 -305.213589 
L 402.171136 -308.823301 
L 401.987671 -312.433014 
L 401.692878 -316.042726 
L 401.356108 -319.652438 
L 400.98999 -323.262151 
L 400.545184 -326.871863 
L 400.113367 -330.481575 
L 399.547846 -334.091288 
L 398.757212 -337.701 
L 397.992453 -341.310712 
L 397.185212 -344.920425 
L 396.25339 -348.530137 
L 395.185788 -352.139849 
L 394.105382 -355.749562 
L 393.102084 -359.359274 
L 392.362729 -362.968987 
L 391.977931 -366.578699 
L 392.049453 -370.188411 
L 392.514054 -373.798124 
L 393.340207 -377.407836 
L 394.494725 -381.017548 
L 395.890054 -384.627261 
L 397.367898 -388.236973 
L 398.822161 -391.846685 
L 400.205403 -395.456398 
L 401.291765 -399.06611 
L 402.103198 -402.675822 
L 402.671367 -406.285535 
L 402.996075 -409.895247 
L 403.166205 -413.504959 
L 403.242827 -417.114672 
L 403.273177 -420.724384 
L 403.282349 -424.334097 
L 403.284037 -427.943809 
L 403.287532 -427.943809 
L 403.287532 -427.943809 
L 403.28922 -424.334097 
L 403.298391 -420.724384 
L 403.328721 -417.114672 
L 403.405196 -413.504959 
L 403.574506 -409.895247 
L 403.895776 -406.285535 
L 404.452084 -402.675822 
L 405.233929 -399.06611 
L 406.258039 -395.456398 
L 407.525866 -391.846685 
L 408.816989 -388.236973 
L 410.087175 -384.627261 
L 411.249453 -381.017548 
L 412.185109 -377.407836 
L 412.840675 -373.798124 
L 413.204349 -370.188411 
L 413.260018 -366.578699 
L 412.959518 -362.968987 
L 412.375242 -359.359274 
L 411.567574 -355.749562 
L 410.6782 -352.139849 
L 409.778698 -348.530137 
L 408.976251 -344.920425 
L 408.267619 -341.310712 
L 407.584429 -337.701 
L 406.865681 -334.091288 
L 406.343636 -330.481575 
L 405.940465 -326.871863 
L 405.520978 -323.262151 
L 405.172468 -319.652438 
L 404.849281 -316.042726 
L 404.564299 -312.433014 
L 404.385952 -308.823301 
L 404.227304 -305.213589 
L 404.062909 -301.603876 
L 403.988558 -297.994164 
L 403.926171 -294.384452 
L 403.823997 -290.774739 
L 403.755169 -287.165027 
L 403.676421 -283.555315 
L 403.594927 -279.945602 
L 403.54269 -276.33589 
L 403.506056 -272.726178 
L 403.479475 -269.116465 
L 403.45458 -265.506753 
L 403.435582 -261.897041 
L 403.409539 -258.287328 
L 403.383921 -254.677616 
L 403.371092 -251.067904 
L 403.366253 -247.458191 
L 403.352521 -243.848479 
L 403.342486 -240.238766 
L 403.336257 -236.629054 
L 403.326862 -233.019342 
L 403.320517 -229.409629 
L 403.319246 -225.799917 
L 403.31741 -222.190205 
L 403.318119 -218.580492 
L 403.313307 -214.97078 
L 403.302398 -211.361068 
L 403.297833 -207.751355 
L 403.29753 -204.141643 
L 403.295981 -200.531931 
L 403.294614 -196.922218 
L 403.291885 -193.312506 
L 403.289715 -189.702794 
L 403.289271 -186.093081 
L 403.289092 -182.483369 
L 403.288135 -178.873656 
L 403.289044 -175.263944 
L 403.289044 -171.654232 
L 403.288301 -168.044519 
L 403.288144 -164.434807 
L 403.287821 -160.825095 
L 403.286542 -157.215382 
L 403.285994 -153.60567 
L 403.286552 -149.995958 
L 403.286352 -146.386245 
L 403.285846 -142.776533 
L 403.285787 -139.166821 
L 403.285898 -135.557108 
L 403.286878 -131.947396 
L 403.287341 -128.337683 
L 403.286156 -124.727971 
L 403.286292 -121.118259 
L 403.286595 -117.508546 
L 403.285977 -113.898834 
L 403.285791 -110.289122 
L 403.285785 -106.679409 
L 403.285785 -103.069697 
L 403.285785 -99.459985 
L 403.285785 -95.850272 
L 403.285785 -92.24056 
L 403.285785 -88.630848 
L 403.285785 -85.021135 
L 403.285785 -81.411423 
L 403.285803 -77.801711 
L 403.286112 -74.191998 
L 403.286644 -70.582286 
z
"/>
    </defs>
    <g clip-path="url(#p8f7c5bb1f6)">
     <use xlink:href="#md3b6713af9" x="0" y="553.92575" style="fill: #2c115f; fill-opacity: 0.8"/>
    </g>
   </g>
   <g id="PolyCollection_6">
    <defs>
     <path id="m82dc01cc4a" d="M 474.191809 -13.824656 
L 474.190716 -13.824656 
L 474.190852 -17.519053 
L 474.190725 -21.21345 
L 474.191114 -24.907846 
L 474.191255 -28.602243 
L 474.191158 -32.296639 
L 474.19049 -35.991036 
L 474.190433 -39.685433 
L 474.191132 -43.379829 
L 474.191198 -47.074226 
L 474.19064 -50.768622 
L 474.190189 -54.463019 
L 474.190508 -58.157416 
L 474.190574 -61.851812 
L 474.188879 -65.546209 
L 474.189369 -69.240605 
L 474.190553 -72.935002 
L 474.190649 -76.629399 
L 474.190232 -80.323795 
L 474.190423 -84.018192 
L 474.190404 -87.712588 
L 474.1894 -91.406985 
L 474.187579 -95.101382 
L 474.187187 -98.795778 
L 474.188104 -102.490175 
L 474.188284 -106.184571 
L 474.188465 -109.878968 
L 474.188019 -113.573365 
L 474.186503 -117.267761 
L 474.184177 -120.962158 
L 474.181942 -124.656554 
L 474.181647 -128.350951 
L 474.180937 -132.045348 
L 474.179933 -135.739744 
L 474.178618 -139.434141 
L 474.175556 -143.128537 
L 474.172271 -146.822934 
L 474.170789 -150.517331 
L 474.167748 -154.211727 
L 474.160826 -157.906124 
L 474.154523 -161.60052 
L 474.15146 -165.294917 
L 474.150899 -168.989314 
L 474.142031 -172.68371 
L 474.132574 -176.378107 
L 474.125115 -180.072503 
L 474.118004 -183.7669 
L 474.098024 -187.461297 
L 474.086122 -191.155693 
L 474.070083 -194.85009 
L 474.042465 -198.544486 
L 474.018048 -202.238883 
L 474.005999 -205.93328 
L 473.985398 -209.627676 
L 473.944156 -213.322073 
L 473.891147 -217.016469 
L 473.853709 -220.710866 
L 473.799788 -224.405263 
L 473.717025 -228.099659 
L 473.643012 -231.794056 
L 473.541944 -235.488452 
L 473.43082 -239.182849 
L 473.335462 -242.877245 
L 473.180309 -246.571642 
L 472.987028 -250.266039 
L 472.76388 -253.960435 
L 472.537554 -257.654832 
L 472.292089 -261.349228 
L 471.97718 -265.043625 
L 471.568244 -268.738022 
L 471.128868 -272.432418 
L 470.609549 -276.126815 
L 470.043001 -279.821211 
L 469.363576 -283.515608 
L 468.576083 -287.210005 
L 467.640232 -290.904401 
L 466.771888 -294.598798 
L 465.762377 -298.293194 
L 464.819617 -301.987591 
L 464.032819 -305.681988 
L 463.461049 -309.376384 
L 463.036989 -313.070781 
L 462.883409 -316.765177 
L 463.244721 -320.459574 
L 464.021164 -324.153971 
L 465.13956 -327.848367 
L 466.430767 -331.542764 
L 467.709093 -335.23716 
L 469.027687 -338.931557 
L 470.334524 -342.625954 
L 471.459865 -346.32035 
L 472.369417 -350.014747 
L 473.112289 -353.709143 
L 473.607887 -357.40354 
L 473.898667 -361.097937 
L 474.049417 -364.792333 
L 474.137176 -368.48673 
L 474.175263 -372.181126 
L 474.184797 -375.875523 
L 474.188869 -379.56992 
L 474.193656 -379.56992 
L 474.193656 -379.56992 
L 474.197727 -375.875523 
L 474.207258 -372.181126 
L 474.245314 -368.48673 
L 474.332871 -364.792333 
L 474.48285 -361.097937 
L 474.770646 -357.40354 
L 475.256661 -353.709143 
L 475.974737 -350.014747 
L 476.837305 -346.32035 
L 477.879977 -342.625954 
L 479.058 -338.931557 
L 480.212332 -335.23716 
L 481.299893 -331.542764 
L 482.368188 -327.848367 
L 483.269885 -324.153971 
L 483.883406 -320.459574 
L 484.165496 -316.765177 
L 484.045852 -313.070781 
L 483.71348 -309.376384 
L 483.260598 -305.681988 
L 482.628341 -301.987591 
L 481.856608 -298.293194 
L 481.012641 -294.598798 
L 480.271696 -290.904401 
L 479.45715 -287.210005 
L 478.758508 -283.515608 
L 478.145772 -279.821211 
L 477.627612 -276.126815 
L 477.146765 -272.432418 
L 476.735469 -268.738022 
L 476.348928 -265.043625 
L 476.048776 -261.349228 
L 475.813294 -257.654832 
L 475.594984 -253.960435 
L 475.378611 -250.266039 
L 475.190289 -246.571642 
L 475.0385 -242.877245 
L 474.944936 -239.182849 
L 474.83564 -235.488452 
L 474.735986 -231.794056 
L 474.662859 -228.099659 
L 474.580935 -224.405263 
L 474.527475 -220.710866 
L 474.490318 -217.016469 
L 474.43765 -213.322073 
L 474.396627 -209.627676 
L 474.376121 -205.93328 
L 474.364123 -202.238883 
L 474.339798 -198.544486 
L 474.312268 -194.85009 
L 474.296273 -191.155693 
L 474.284398 -187.461297 
L 474.264458 -183.7669 
L 474.257358 -180.072503 
L 474.24991 -176.378107 
L 474.240465 -172.68371 
L 474.231606 -168.989314 
L 474.231045 -165.294917 
L 474.227985 -161.60052 
L 474.221687 -157.906124 
L 474.21477 -154.211727 
L 474.211731 -150.517331 
L 474.210249 -146.822934 
L 474.206965 -143.128537 
L 474.203905 -139.434141 
L 474.20259 -135.739744 
L 474.201586 -132.045348 
L 474.200877 -128.350951 
L 474.200582 -124.656554 
L 474.198347 -120.962158 
L 474.196021 -117.267761 
L 474.194505 -113.573365 
L 474.194059 -109.878968 
L 474.19424 -106.184571 
L 474.194421 -102.490175 
L 474.195338 -98.795778 
L 474.194946 -95.101382 
L 474.193125 -91.406985 
L 474.19212 -87.712588 
L 474.192102 -84.018192 
L 474.192293 -80.323795 
L 474.191875 -76.629399 
L 474.191971 -72.935002 
L 474.193156 -69.240605 
L 474.193646 -65.546209 
L 474.19195 -61.851812 
L 474.192016 -58.157416 
L 474.192336 -54.463019 
L 474.191884 -50.768622 
L 474.191326 -47.074226 
L 474.191393 -43.379829 
L 474.192091 -39.685433 
L 474.192034 -35.991036 
L 474.191367 -32.296639 
L 474.191269 -28.602243 
L 474.191411 -24.907846 
L 474.191799 -21.21345 
L 474.191672 -17.519053 
L 474.191809 -13.824656 
z
"/>
    </defs>
    <g clip-path="url(#p8f7c5bb1f6)">
     <use xlink:href="#m82dc01cc4a" x="0" y="553.92575" style="fill: #2c115f; fill-opacity: 0.8"/>
    </g>
   </g>
   <g id="PolyCollection_7">
    <defs>
     <path id="m1e4e284767" d="M 545.097032 44.74693 
L 545.096448 44.74693 
L 545.096668 41.143428 
L 545.096621 37.539927 
L 545.096454 33.936425 
L 545.096498 30.332924 
L 545.09654 26.729422 
L 545.096729 23.125921 
L 545.096692 19.522419 
L 545.096454 15.918918 
L 545.096645 12.315416 
L 545.096738 8.711915 
L 545.096727 5.108413 
L 545.096488 1.504912 
L 545.095811 -2.09859 
L 545.095579 -5.702091 
L 545.096067 -9.305593 
L 545.096351 -12.909094 
L 545.09639 -16.512596 
L 545.095316 -20.116097 
L 545.095752 -23.719599 
L 545.095895 -27.3231 
L 545.096002 -30.926602 
L 545.094875 -34.530103 
L 545.095174 -38.133605 
L 545.094378 -41.737106 
L 545.092853 -45.340608 
L 545.093587 -48.944109 
L 545.093319 -52.547611 
L 545.093243 -56.151112 
L 545.091363 -59.754614 
L 545.089167 -63.358115 
L 545.088372 -66.961617 
L 545.088544 -70.565118 
L 545.08696 -74.16862 
L 545.084743 -77.772121 
L 545.08709 -81.375623 
L 545.083328 -84.979124 
L 545.078887 -88.582626 
L 545.078538 -92.186127 
L 545.071421 -95.789629 
L 545.069586 -99.39313 
L 545.067578 -102.996632 
L 545.058861 -106.600133 
L 545.049411 -110.203635 
L 545.04369 -113.807136 
L 545.039857 -117.410638 
L 545.032147 -121.014139 
L 545.01402 -124.617641 
L 544.998521 -128.221142 
L 544.991648 -131.824644 
L 544.972633 -135.428145 
L 544.941759 -139.031647 
L 544.919998 -142.635148 
L 544.900877 -146.23865 
L 544.867695 -149.842151 
L 544.823515 -153.445653 
L 544.779444 -157.049154 
L 544.742181 -160.652656 
L 544.689539 -164.256157 
L 544.602543 -167.859659 
L 544.529615 -171.46316 
L 544.44773 -175.066662 
L 544.338013 -178.670163 
L 544.219035 -182.273665 
L 544.056658 -185.877166 
L 543.910062 -189.480668 
L 543.736669 -193.084169 
L 543.517033 -196.687671 
L 543.240606 -200.291172 
L 542.911768 -203.894674 
L 542.60514 -207.498175 
L 542.239714 -211.101677 
L 541.75884 -214.705178 
L 541.225533 -218.30868 
L 540.637032 -221.912181 
L 539.950701 -225.515683 
L 539.160324 -229.119184 
L 538.330755 -232.722686 
L 537.412959 -236.326187 
L 536.386307 -239.929689 
L 535.464362 -243.53319 
L 534.660588 -247.136692 
L 534.059781 -250.740193 
L 533.788886 -254.343695 
L 533.916946 -257.947196 
L 534.655211 -261.550698 
L 536.006283 -265.154199 
L 537.66094 -268.757701 
L 539.567004 -272.361202 
L 541.344143 -275.964704 
L 542.77593 -279.568205 
L 543.813734 -283.171707 
L 544.463228 -286.775208 
L 544.799224 -290.37871 
L 544.969582 -293.982211 
L 545.046488 -297.585713 
L 545.077698 -301.189214 
L 545.088777 -304.792716 
L 545.094047 -308.396217 
L 545.09584 -311.999719 
L 545.097639 -311.999719 
L 545.097639 -311.999719 
L 545.099432 -308.396217 
L 545.104702 -304.792716 
L 545.115777 -301.189214 
L 545.146962 -297.585713 
L 545.223706 -293.982211 
L 545.393214 -290.37871 
L 545.725547 -286.775208 
L 546.360597 -283.171707 
L 547.355639 -279.568205 
L 548.690078 -275.964704 
L 550.287415 -272.361202 
L 551.931999 -268.757701 
L 553.305273 -265.154199 
L 554.390984 -261.550698 
L 554.971237 -257.947196 
L 555.070973 -254.343695 
L 554.859677 -250.740193 
L 554.386725 -247.136692 
L 553.744514 -243.53319 
L 552.994197 -239.929689 
L 552.140957 -236.326187 
L 551.361906 -232.722686 
L 550.644126 -229.119184 
L 549.947897 -225.515683 
L 549.333287 -221.912181 
L 548.798687 -218.30868 
L 548.308045 -214.705178 
L 547.860513 -211.101677 
L 547.51712 -207.498175 
L 547.22675 -203.894674 
L 546.913061 -200.291172 
L 546.647517 -196.687671 
L 546.435312 -193.084169 
L 546.267018 -189.480668 
L 546.124202 -185.877166 
L 545.965441 -182.273665 
L 545.848729 -178.670163 
L 545.740813 -175.066662 
L 545.660091 -171.46316 
L 545.588069 -167.859659 
L 545.501992 -164.256157 
L 545.44982 -160.652656 
L 545.412851 -157.049154 
L 545.369086 -153.445653 
L 545.325166 -149.842151 
L 545.29215 -146.23865 
L 545.273113 -142.635148 
L 545.251438 -139.031647 
L 545.220665 -135.428145 
L 545.201702 -131.824644 
L 545.194845 -128.221142 
L 545.179378 -124.617641 
L 545.161283 -121.014139 
L 545.153584 -117.410638 
L 545.149757 -113.807136 
L 545.144042 -110.203635 
L 545.134601 -106.600133 
L 545.125892 -102.996632 
L 545.123885 -99.39313 
L 545.122051 -95.789629 
L 545.114938 -92.186127 
L 545.114588 -88.582626 
L 545.11015 -84.979124 
L 545.106388 -81.375623 
L 545.108734 -77.772121 
L 545.106518 -74.16862 
L 545.104934 -70.565118 
L 545.105107 -66.961617 
L 545.104311 -63.358115 
L 545.102116 -59.754614 
L 545.100237 -56.151112 
L 545.10016 -52.547611 
L 545.099892 -48.944109 
L 545.100626 -45.340608 
L 545.099101 -41.737106 
L 545.098305 -38.133605 
L 545.098604 -34.530103 
L 545.097477 -30.926602 
L 545.097584 -27.3231 
L 545.097727 -23.719599 
L 545.098163 -20.116097 
L 545.09709 -16.512596 
L 545.097129 -12.909094 
L 545.097412 -9.305593 
L 545.0979 -5.702091 
L 545.097669 -2.09859 
L 545.096991 1.504912 
L 545.096753 5.108413 
L 545.096741 8.711915 
L 545.096834 12.315416 
L 545.097026 15.918918 
L 545.096787 19.522419 
L 545.096751 23.125921 
L 545.09694 26.729422 
L 545.096982 30.332924 
L 545.097026 33.936425 
L 545.096859 37.539927 
L 545.096811 41.143428 
L 545.097032 44.74693 
z
"/>
    </defs>
    <g clip-path="url(#p8f7c5bb1f6)">
     <use xlink:href="#m1e4e284767" x="0" y="553.92575" style="fill: #2c115f; fill-opacity: 0.8"/>
    </g>
   </g>
   <g id="PolyCollection_8">
    <defs>
     <path id="me2d52092e1" d="M 616.00237 145.168066 
L 616.002064 145.168066 
L 616.002208 140.928029 
L 616.002217 136.687991 
L 616.002217 132.447954 
L 616.002217 128.207917 
L 616.002217 123.967879 
L 616.002217 119.727842 
L 616.002217 115.487804 
L 616.002217 111.247767 
L 616.002217 107.00773 
L 616.002217 102.767692 
L 616.002217 98.527655 
L 616.002217 94.287618 
L 616.002217 90.04758 
L 616.002217 85.807543 
L 616.002216 81.567506 
L 616.00204 77.327468 
L 616.001932 73.087431 
L 616.002031 68.847394 
L 616.00203 64.607356 
L 616.002059 60.367319 
L 616.001935 56.127282 
L 616.002031 51.887244 
L 616.00212 47.647207 
L 616.001916 43.40717 
L 616.001606 39.167132 
L 616.001846 34.927095 
L 616.001467 30.687058 
L 616.00096 26.44702 
L 616.001357 22.206983 
L 616.001143 17.966946 
L 616.000357 13.726908 
L 616.00034 9.486871 
L 616.000508 5.246834 
L 615.99989 1.006796 
L 615.999778 -3.233241 
L 615.998807 -7.473278 
L 615.998265 -11.713316 
L 615.997705 -15.953353 
L 615.996428 -20.193391 
L 615.996438 -24.433428 
L 615.993855 -28.673465 
L 615.993379 -32.913503 
L 615.993598 -37.15354 
L 615.991075 -41.393577 
L 615.989266 -45.633615 
L 615.985348 -49.873652 
L 615.981386 -54.113689 
L 615.974922 -58.353727 
L 615.971762 -62.593764 
L 615.964276 -66.833801 
L 615.958558 -71.073839 
L 615.947198 -75.313876 
L 615.938006 -79.553913 
L 615.92652 -83.793951 
L 615.912817 -88.033988 
L 615.891572 -92.274025 
L 615.868682 -96.514063 
L 615.850183 -100.7541 
L 615.835578 -104.994137 
L 615.792946 -109.234175 
L 615.753382 -113.474212 
L 615.704978 -117.714249 
L 615.654011 -121.954287 
L 615.579551 -126.194324 
L 615.49477 -130.434361 
L 615.405758 -134.674399 
L 615.275734 -138.914436 
L 615.148211 -143.154474 
L 614.955291 -147.394511 
L 614.782132 -151.634548 
L 614.575205 -155.874586 
L 614.261946 -160.114623 
L 613.935795 -164.35466 
L 613.583588 -168.594698 
L 613.073647 -172.834735 
L 612.536222 -177.074772 
L 611.887331 -181.31481 
L 611.16235 -185.554847 
L 610.290443 -189.794884 
L 609.337528 -194.034922 
L 608.239314 -198.274959 
L 607.10503 -202.514996 
L 606.099713 -206.755034 
L 605.184189 -210.995071 
L 604.694364 -215.235108 
L 604.756979 -219.475146 
L 605.609894 -223.715183 
L 607.274716 -227.95522 
L 609.524349 -232.195258 
L 611.830727 -236.435295 
L 613.745801 -240.675332 
L 614.96948 -244.91537 
L 615.623879 -249.155407 
L 615.888508 -253.395444 
L 615.971494 -257.635482 
L 615.994346 -261.875519 
L 616.000075 -266.115556 
L 616.001565 -270.355594 
L 616.00206 -274.595631 
L 616.002375 -274.595631 
L 616.002375 -274.595631 
L 616.00287 -270.355594 
L 616.004359 -266.115556 
L 616.010087 -261.875519 
L 616.032929 -257.635482 
L 616.115774 -253.395444 
L 616.378872 -249.155407 
L 617.022511 -244.91537 
L 618.200067 -240.675332 
L 619.977831 -236.435295 
L 622.019576 -232.195258 
L 623.913701 -227.95522 
L 625.257465 -223.715183 
L 625.927718 -219.475146 
L 625.976451 -215.235108 
L 625.593507 -210.995071 
L 624.867046 -206.755034 
L 624.052863 -202.514996 
L 623.112869 -198.274959 
L 622.180438 -194.034922 
L 621.352962 -189.794884 
L 620.580363 -185.554847 
L 619.926386 -181.31481 
L 619.331913 -177.074772 
L 618.832886 -172.834735 
L 618.353682 -168.594698 
L 618.019414 -164.35466 
L 617.707444 -160.114623 
L 617.40558 -155.874586 
L 617.204973 -151.634548 
L 617.036358 -147.394511 
L 616.847697 -143.154474 
L 616.722521 -138.914436 
L 616.594505 -134.674399 
L 616.506642 -130.434361 
L 616.422784 -126.194324 
L 616.348998 -121.954287 
L 616.298416 -117.714249 
L 616.250323 -113.474212 
L 616.210972 -109.234175 
L 616.168529 -104.994137 
L 616.153979 -100.7541 
L 616.135542 -96.514063 
L 616.112718 -92.274025 
L 616.091523 -88.033988 
L 616.077847 -83.793951 
L 616.06638 -79.553913 
L 616.057201 -75.313876 
L 616.045854 -71.073839 
L 616.040141 -66.833801 
L 616.032661 -62.593764 
L 616.029504 -58.353727 
L 616.023043 -54.113689 
L 616.019083 -49.873652 
L 616.015166 -45.633615 
L 616.013358 -41.393577 
L 616.010836 -37.15354 
L 616.011055 -32.913503 
L 616.010579 -28.673465 
L 616.007996 -24.433428 
L 616.008006 -20.193391 
L 616.006729 -15.953353 
L 616.006169 -11.713316 
L 616.005627 -7.473278 
L 616.004656 -3.233241 
L 616.004544 1.006796 
L 616.003927 5.246834 
L 616.004095 9.486871 
L 616.004077 13.726908 
L 616.003292 17.966946 
L 616.003077 22.206983 
L 616.003474 26.44702 
L 616.002968 30.687058 
L 616.002589 34.927095 
L 616.002828 39.167132 
L 616.002519 43.40717 
L 616.002314 47.647207 
L 616.002404 51.887244 
L 616.002499 56.127282 
L 616.002375 60.367319 
L 616.002404 64.607356 
L 616.002403 68.847394 
L 616.002502 73.087431 
L 616.002394 77.327468 
L 616.002218 81.567506 
L 616.002217 85.807543 
L 616.002217 90.04758 
L 616.002217 94.287618 
L 616.002217 98.527655 
L 616.002217 102.767692 
L 616.002217 107.00773 
L 616.002217 111.247767 
L 616.002217 115.487804 
L 616.002217 119.727842 
L 616.002217 123.967879 
L 616.002217 128.207917 
L 616.002217 132.447954 
L 616.002217 136.687991 
L 616.002227 140.928029 
L 616.00237 145.168066 
z
"/>
    </defs>
    <g clip-path="url(#p8f7c5bb1f6)">
     <use xlink:href="#me2d52092e1" x="0" y="553.92575" style="fill: #2c115f; fill-opacity: 0.8"/>
    </g>
   </g>
   <g id="LineCollection_1">
    <path d="M 112.295481 42.345058 
L 126.44214 42.345058 
" clip-path="url(#p8f7c5bb1f6)" style="fill: none; stroke: #000000"/>
   </g>
   <g id="LineCollection_2">
    <path d="M 183.200958 77.057384 
L 197.347618 77.057384 
" clip-path="url(#p8f7c5bb1f6)" style="fill: none; stroke: #000000"/>
   </g>
   <g id="LineCollection_3">
    <path d="M 254.106436 112.756934 
L 268.253095 112.756934 
" clip-path="url(#p8f7c5bb1f6)" style="fill: none; stroke: #000000"/>
   </g>
   <g id="LineCollection_4">
    <path d="M 325.011913 145.674102 
L 339.158573 145.674102 
" clip-path="url(#p8f7c5bb1f6)" style="fill: none; stroke: #000000"/>
   </g>
   <g id="LineCollection_5">
    <path d="M 395.917391 184.776838 
L 410.06405 184.776838 
" clip-path="url(#p8f7c5bb1f6)" style="fill: none; stroke: #000000"/>
   </g>
   <g id="LineCollection_6">
    <path d="M 466.822868 236.95385 
L 480.969528 236.95385 
" clip-path="url(#p8f7c5bb1f6)" style="fill: none; stroke: #000000"/>
   </g>
   <g id="LineCollection_7">
    <path d="M 537.728346 302.260963 
L 551.875005 302.260963 
" clip-path="url(#p8f7c5bb1f6)" style="fill: none; stroke: #000000"/>
   </g>
   <g id="LineCollection_8">
    <path d="M 608.633823 341.087791 
L 622.780482 341.087791 
" clip-path="url(#p8f7c5bb1f6)" style="fill: none; stroke: #000000"/>
   </g>
   <g id="patch_3">
    <path d="M 82.475 502.072 
L 82.475 0 
" style="fill: none; stroke: #262626; stroke-width: 2.5; stroke-linejoin: miter; stroke-linecap: square"/>
   </g>
   <g id="patch_4">
    <path d="M 82.475 502.072 
L 651.857472 502.072 
" style="fill: none; stroke: #262626; stroke-width: 2.5; stroke-linejoin: miter; stroke-linecap: square"/>
   </g>
   <g id="legend_1">
    <g id="text_11">
     <!-- ROI ($\alpha$) -->
     <g style="fill: #262626" transform="translate(574.136032 31.2)">
      <text>
       <tspan style="font: 20px 'NewComputerModernSans10'" x="0 12.919998 27.639999 33.199997 39.860001 60.423203" y="-0.0">ROI ()</tspan>
       <tspan style="font: 20px 'cmmi10'" x="47.639999" y="-0.0">®</tspan>
      </text>
     </g>
    </g>
    <g id="patch_5">
     <path d="M 524.076344 58.7 
L 560.076344 58.7 
L 560.076344 46.1 
L 524.076344 46.1 
z
" style="fill: #2c115f"/>
    </g>
    <g id="text_12">
     <text style="fill: #262626; font: 18px 'NewComputerModernSans10', sans-serif, 'NewComputerModernMath', serif; text-anchor: start" x="574.476344" y="58.7" transform="rotate(-0 574.476344 58.7)">early (-1.74)</text>
    </g>
    <g id="patch_6">
     <path d="M 524.076344 84.8 
L 560.076344 84.8 
L 560.076344 72.2 
L 524.076344 72.2 
z
" style="fill: #721f81"/>
    </g>
    <g id="text_13">
     <text style="fill: #262626; font: 18px 'NewComputerModernSans10', sans-serif, 'NewComputerModernMath', serif; text-anchor: start" x="574.476344" y="84.8" transform="rotate(-0 574.476344 84.8)">ventral</text>
    </g>
    <g id="patch_7">
     <path d="M 524.076344 109.893125 
L 560.076344 109.893125 
L 560.076344 97.293125 
L 524.076344 97.293125 
z
" style="fill: #b73779"/>
    </g>
    <g id="text_14">
     <text style="fill: #262626; font: 18px 'NewComputerModernSans10', sans-serif, 'NewComputerModernMath', serif; text-anchor: start" x="574.476344" y="109.893125" transform="rotate(-0 574.476344 109.893125)">lateral</text>
    </g>
    <g id="patch_8">
     <path d="M 524.076344 134.98625 
L 560.076344 134.98625 
L 560.076344 122.38625 
L 524.076344 122.38625 
z
" style="fill: #f1605d"/>
    </g>
    <g id="text_15">
     <text style="fill: #262626; font: 18px 'NewComputerModernSans10', sans-serif, 'NewComputerModernMath', serif; text-anchor: start" x="574.476344" y="134.98625" transform="rotate(-0 574.476344 134.98625)">temporoparietal</text>
    </g>
    <g id="patch_9">
     <path d="M 524.076344 160.079375 
L 560.076344 160.079375 
L 560.076344 147.479375 
L 524.076344 147.479375 
z
" style="fill: #feb078"/>
    </g>
    <g id="text_16">
     <text style="fill: #262626; font: 18px 'NewComputerModernSans10', sans-serif, 'NewComputerModernMath', serif; text-anchor: start" x="574.476344" y="160.079375" transform="rotate(-0 574.476344 160.079375)">posteromedial</text>
    </g>
   </g>
  </g>
 </g>
 <defs>
  <clipPath id="p8f7c5bb1f6">
   <rect x="82.475" y="0" width="569.382472" height="502.072"/>
  </clipPath>
 </defs>
</svg>
