<?xml version="1.0" encoding="utf-8" standalone="no"?>
<!DOCTYPE svg PUBLIC "-//W3C//DTD SVG 1.1//EN"
  "http://www.w3.org/Graphics/SVG/1.1/DTD/svg11.dtd">
<svg xmlns:xlink="http://www.w3.org/1999/xlink" width="699.795719pt" height="553.92575pt" viewBox="0 0 699.795719 553.92575" xmlns="http://www.w3.org/2000/svg" version="1.1">
 <metadata>
  <rdf:RDF xmlns:dc="http://purl.org/dc/elements/1.1/" xmlns:cc="http://creativecommons.org/ns#" xmlns:rdf="http://www.w3.org/1999/02/22-rdf-syntax-ns#">
   <cc:Work>
    <dc:type rdf:resource="http://purl.org/dc/dcmitype/StillImage"/>
    <dc:date>2025-04-11T17:49:39.598226</dc:date>
    <dc:format>image/svg+xml</dc:format>
    <dc:creator>
     <cc:Agent>
      <dc:title>Matplotlib v3.8.4, https://matplotlib.org/</dc:title>
     </cc:Agent>
    </dc:creator>
   </cc:Work>
  </rdf:RDF>
 </metadata>
 <defs>
  <style type="text/css">*{stroke-linejoin: round; stroke-linecap: butt}</style>
 </defs>
 <g id="figure_1">
  <g id="patch_1">
   <path d="M 0 553.92575 
L 699.795719 553.92575 
L 699.795719 0 
L 0 0 
L 0 553.92575 
z
" style="fill: none"/>
  </g>
  <g id="axes_1">
   <g id="patch_2">
    <path d="M 82.475 502.072 
L 651.857472 502.072 
L 651.857472 0 
L 82.475 0 
L 82.475 502.072 
z
" style="fill: none"/>
   </g>
   <g id="matplotlib.axis_1">
    <g id="xtick_1">
     <g id="line2d_1">
      <defs>
       <path id="ma873bcf1ca" d="M 0 0 
L 0 3.5 
" style="stroke: #262626"/>
      </defs>
      <g>
       <use xlink:href="#ma873bcf1ca" x="84.211136" y="502.072" style="fill: #262626; stroke: #262626"/>
      </g>
     </g>
     <g id="text_1">
      <!-- $\mathdefault{10^{0}}$ -->
      <g style="fill: #262626" transform="translate(69.031136 524.341375)">
       <text>
        <tspan style="font: 22px 'NewComputerModernSans10'" x="0 11" y="-0.71875">10</tspan>
        <tspan style="font: 15.4px 'NewComputerModernSans10'" x="22.170898" y="-7.5546875">0</tspan>
       </text>
      </g>
     </g>
    </g>
    <g id="xtick_2">
     <g id="line2d_2">
      <g>
       <use xlink:href="#ma873bcf1ca" x="279.201199" y="502.072" style="fill: #262626; stroke: #262626"/>
      </g>
     </g>
     <g id="text_2">
      <!-- $\mathdefault{10^{1}}$ -->
      <g style="fill: #262626" transform="translate(264.021199 524.341375)">
       <text>
        <tspan style="font: 22px 'NewComputerModernSans10'" x="0 11" y="-0.71875">10</tspan>
        <tspan style="font: 15.4px 'NewComputerModernSans10'" x="22.170898" y="-7.5546875">1</tspan>
       </text>
      </g>
     </g>
    </g>
    <g id="xtick_3">
     <g id="line2d_3">
      <g>
       <use xlink:href="#ma873bcf1ca" x="474.191262" y="502.072" style="fill: #262626; stroke: #262626"/>
      </g>
     </g>
     <g id="text_3">
      <!-- $\mathdefault{10^{2}}$ -->
      <g style="fill: #262626" transform="translate(459.011262 524.341375)">
       <text>
        <tspan style="font: 22px 'NewComputerModernSans10'" x="0 11" y="-0.71875">10</tspan>
        <tspan style="font: 15.4px 'NewComputerModernSans10'" x="22.170898" y="-7.5546875">2</tspan>
       </text>
      </g>
     </g>
    </g>
    <g id="xtick_4">
     <g id="line2d_4"/>
    </g>
    <g id="xtick_5">
     <g id="line2d_5"/>
    </g>
    <g id="xtick_6">
     <g id="line2d_6"/>
    </g>
    <g id="xtick_7">
     <g id="line2d_7"/>
    </g>
    <g id="xtick_8">
     <g id="line2d_8"/>
    </g>
    <g id="xtick_9">
     <g id="line2d_9"/>
    </g>
    <g id="xtick_10">
     <g id="line2d_10"/>
    </g>
    <g id="xtick_11">
     <g id="line2d_11"/>
    </g>
    <g id="xtick_12">
     <g id="line2d_12"/>
    </g>
    <g id="xtick_13">
     <g id="line2d_13"/>
    </g>
    <g id="xtick_14">
     <g id="line2d_14"/>
    </g>
    <g id="xtick_15">
     <g id="line2d_15"/>
    </g>
    <g id="xtick_16">
     <g id="line2d_16"/>
    </g>
    <g id="xtick_17">
     <g id="line2d_17"/>
    </g>
    <g id="xtick_18">
     <g id="line2d_18"/>
    </g>
    <g id="xtick_19">
     <g id="line2d_19"/>
    </g>
    <g id="xtick_20">
     <g id="line2d_20"/>
    </g>
    <g id="xtick_21">
     <g id="line2d_21"/>
    </g>
    <g id="xtick_22">
     <g id="line2d_22"/>
    </g>
    <g id="xtick_23">
     <g id="line2d_23"/>
    </g>
    <g id="xtick_24">
     <g id="line2d_24"/>
    </g>
    <g id="xtick_25">
     <g id="line2d_25"/>
    </g>
    <g id="xtick_26">
     <g id="line2d_26"/>
    </g>
    <g id="text_4">
     <text style="fill: #262626; font: 24px 'NewComputerModernSans10', sans-serif, 'NewComputerModernMath', serif; text-anchor: middle" x="367.166236" y="549.26825" transform="rotate(-0 367.166236 549.26825)">rank</text>
    </g>
   </g>
   <g id="matplotlib.axis_2">
    <g id="ytick_1">
     <g id="line2d_27">
      <defs>
       <path id="mcfe7dc0d58" d="M 0 0 
L -3.5 0 
" style="stroke: #262626"/>
      </defs>
      <g>
       <use xlink:href="#mcfe7dc0d58" x="82.475" y="502.072" style="fill: #262626; stroke: #262626"/>
      </g>
     </g>
     <g id="text_5">
      <!-- $\mathdefault{10^{-10}}$ -->
      <g style="fill: #262626" transform="translate(25.315 509.706687)">
       <text>
        <tspan style="font: 22px 'NewComputerModernSans10'" x="0 11" y="-0.71875">10</tspan>
        <tspan style="font: 15.4px 'NewComputerModernSans10'" x="22.170898 34.152097 41.852097" y="-7.5546875">−10</tspan>
       </text>
      </g>
     </g>
    </g>
    <g id="ytick_2">
     <g id="line2d_28">
      <g>
       <use xlink:href="#mcfe7dc0d58" x="82.475" y="390.500444" style="fill: #262626; stroke: #262626"/>
      </g>
     </g>
     <g id="text_6">
      <!-- $\mathdefault{10^{-8}}$ -->
      <g style="fill: #262626" transform="translate(33.015 398.135132)">
       <text>
        <tspan style="font: 22px 'NewComputerModernSans10'" x="0 11" y="-0.71875">10</tspan>
        <tspan style="font: 15.4px 'NewComputerModernSans10'" x="22.170898 34.152097" y="-7.5546875">−8</tspan>
       </text>
      </g>
     </g>
    </g>
    <g id="ytick_3">
     <g id="line2d_29">
      <g>
       <use xlink:href="#mcfe7dc0d58" x="82.475" y="278.928889" style="fill: #262626; stroke: #262626"/>
      </g>
     </g>
     <g id="text_7">
      <!-- $\mathdefault{10^{-6}}$ -->
      <g style="fill: #262626" transform="translate(33.015 286.563576)">
       <text>
        <tspan style="font: 22px 'NewComputerModernSans10'" x="0 11" y="-0.71875">10</tspan>
        <tspan style="font: 15.4px 'NewComputerModernSans10'" x="22.170898 34.152097" y="-7.5546875">−6</tspan>
       </text>
      </g>
     </g>
    </g>
    <g id="ytick_4">
     <g id="line2d_30">
      <g>
       <use xlink:href="#mcfe7dc0d58" x="82.475" y="167.357333" style="fill: #262626; stroke: #262626"/>
      </g>
     </g>
     <g id="text_8">
      <!-- $\mathdefault{10^{-4}}$ -->
      <g style="fill: #262626" transform="translate(33.015 174.992021)">
       <text>
        <tspan style="font: 22px 'NewComputerModernSans10'" x="0 11" y="-0.05781250000000071">10</tspan>
        <tspan style="font: 15.4px 'NewComputerModernSans10'" x="22.170898 34.152097" y="-6.893750000000001">−4</tspan>
       </text>
      </g>
     </g>
    </g>
    <g id="ytick_5">
     <g id="line2d_31">
      <g>
       <use xlink:href="#mcfe7dc0d58" x="82.475" y="55.785778" style="fill: #262626; stroke: #262626"/>
      </g>
     </g>
     <g id="text_9">
      <!-- $\mathdefault{10^{-2}}$ -->
      <g style="fill: #262626" transform="translate(33.015 63.420465)">
       <text>
        <tspan style="font: 22px 'NewComputerModernSans10'" x="0 11" y="-0.71875">10</tspan>
        <tspan style="font: 15.4px 'NewComputerModernSans10'" x="22.170898 34.152097" y="-7.5546875">−2</tspan>
       </text>
      </g>
     </g>
    </g>
    <g id="text_10">
     <text style="fill: #262626; font: 24px 'NewComputerModernSans10', sans-serif, 'NewComputerModernMath', serif; text-anchor: middle" x="16.6575" y="251.036" transform="rotate(-90 16.6575 251.036)">covariance</text>
    </g>
   </g>
   <g id="PolyCollection_1">
    <defs>
     <path id="mc3cd734a70" d="M 119.716899 -395.923189 
L 119.610818 -395.923189 
L 119.608679 -397.207187 
L 119.618961 -398.491186 
L 119.63534 -399.775185 
L 119.64977 -401.059184 
L 119.658475 -402.343182 
L 119.662281 -403.627181 
L 119.663514 -404.91118 
L 119.663812 -406.195178 
L 119.663867 -407.479177 
L 119.663874 -408.763176 
L 119.663875 -410.047175 
L 119.663875 -411.331173 
L 119.663875 -412.615172 
L 119.663875 -413.899171 
L 119.663875 -415.183169 
L 119.663875 -416.467168 
L 119.663875 -417.751167 
L 119.663875 -419.035166 
L 119.663875 -420.319164 
L 119.663875 -421.603163 
L 119.663875 -422.887162 
L 119.663875 -424.17116 
L 119.663875 -425.455159 
L 119.663875 -426.739158 
L 119.663875 -428.023156 
L 119.663875 -429.307155 
L 119.663875 -430.591154 
L 119.663875 -431.875153 
L 119.663875 -433.159151 
L 119.663875 -434.44315 
L 119.663875 -435.727149 
L 119.663875 -437.011147 
L 119.663875 -438.295146 
L 119.663874 -439.579145 
L 119.663866 -440.863144 
L 119.663807 -442.147142 
L 119.663504 -443.431141 
L 119.662331 -444.71514 
L 119.65902 -445.999138 
L 119.652324 -447.283137 
L 119.643093 -448.567136 
L 119.635598 -449.851135 
L 119.634775 -451.135133 
L 119.641201 -452.419132 
L 119.650349 -453.703131 
L 119.657006 -454.987129 
L 119.658557 -456.271128 
L 119.654383 -457.555127 
L 119.644985 -458.839126 
L 119.632856 -460.123124 
L 119.622258 -461.407123 
L 119.616608 -462.691122 
L 119.616633 -463.97512 
L 119.620548 -465.259119 
L 119.624745 -466.543118 
L 119.626004 -467.827116 
L 119.624069 -469.111115 
L 119.619319 -470.395114 
L 119.608128 -471.679113 
L 119.585458 -472.963111 
L 119.553475 -474.24711 
L 119.523805 -475.531109 
L 119.508809 -476.815107 
L 119.511328 -478.099106 
L 119.523185 -479.383105 
L 119.531704 -480.667104 
L 119.527511 -481.951102 
L 119.510513 -483.235101 
L 119.489811 -484.5191 
L 119.471895 -485.803098 
L 119.448363 -487.087097 
L 119.404852 -488.371096 
L 119.343736 -489.655095 
L 119.285689 -490.939093 
L 119.242953 -492.223092 
L 119.200563 -493.507091 
L 119.128981 -494.791089 
L 119.004882 -496.075088 
L 118.813674 -497.359087 
L 118.540411 -498.643085 
L 118.160222 -499.927084 
L 117.628274 -501.211083 
L 116.889616 -502.495082 
L 115.926549 -503.77908 
L 114.792834 -505.063079 
L 113.571709 -506.347078 
L 112.30834 -507.631076 
L 111.028432 -508.915075 
L 109.823582 -510.199074 
L 108.868941 -511.483073 
L 108.356021 -512.767071 
L 108.448083 -514.05107 
L 109.251971 -515.335069 
L 110.726734 -516.619067 
L 112.619612 -517.903066 
L 114.566186 -519.187065 
L 116.271849 -520.471064 
L 117.597333 -521.755062 
L 118.526556 -523.039061 
L 120.786122 -523.039061 
L 120.786122 -523.039061 
L 121.681185 -521.755062 
L 122.925248 -520.471064 
L 124.472043 -519.187065 
L 126.166903 -517.903066 
L 127.747213 -516.619067 
L 128.934646 -515.335069 
L 129.566436 -514.05107 
L 129.638108 -512.767071 
L 129.237012 -511.483073 
L 128.478826 -510.199074 
L 127.499647 -508.915075 
L 126.431258 -507.631076 
L 125.347026 -506.347078 
L 124.269904 -505.063079 
L 123.243209 -503.77908 
L 122.350123 -502.495082 
L 121.65169 -501.211083 
L 121.141294 -499.927084 
L 120.772629 -498.643085 
L 120.505625 -497.359087 
L 120.317779 -496.075088 
L 120.195411 -494.791089 
L 120.124665 -493.507091 
L 120.082715 -492.223092 
L 120.040379 -490.939093 
L 119.982808 -489.655095 
L 119.922108 -488.371096 
L 119.87884 -487.087097 
L 119.85542 -485.803098 
L 119.837581 -484.5191 
L 119.81696 -483.235101 
L 119.80002 -481.951102 
L 119.795839 -480.667104 
L 119.804332 -479.383105 
L 119.816148 -478.099106 
L 119.818657 -476.815107 
L 119.803714 -475.531109 
L 119.774131 -474.24711 
L 119.742219 -472.963111 
L 119.719585 -471.679113 
L 119.708407 -470.395114 
L 119.703662 -469.111115 
L 119.701729 -467.827116 
L 119.702987 -466.543118 
L 119.70718 -465.259119 
L 119.71109 -463.97512 
L 119.711115 -462.691122 
L 119.705472 -461.407123 
L 119.694882 -460.123124 
L 119.68276 -458.839126 
L 119.673366 -457.555127 
L 119.669192 -456.271128 
L 119.670743 -454.987129 
L 119.677398 -453.703131 
L 119.686543 -452.419132 
L 119.692965 -451.135133 
L 119.692143 -449.851135 
L 119.684652 -448.567136 
L 119.675424 -447.283137 
L 119.66873 -445.999138 
L 119.665418 -444.71514 
L 119.664246 -443.431141 
L 119.663942 -442.147142 
L 119.663884 -440.863144 
L 119.663876 -439.579145 
L 119.663875 -438.295146 
L 119.663875 -437.011147 
L 119.663875 -435.727149 
L 119.663875 -434.44315 
L 119.663875 -433.159151 
L 119.663875 -431.875153 
L 119.663875 -430.591154 
L 119.663875 -429.307155 
L 119.663875 -428.023156 
L 119.663875 -426.739158 
L 119.663875 -425.455159 
L 119.663875 -424.17116 
L 119.663875 -422.887162 
L 119.663875 -421.603163 
L 119.663875 -420.319164 
L 119.663875 -419.035166 
L 119.663875 -417.751167 
L 119.663875 -416.467168 
L 119.663875 -415.183169 
L 119.663875 -413.899171 
L 119.663875 -412.615172 
L 119.663875 -411.331173 
L 119.663875 -410.047175 
L 119.663876 -408.763176 
L 119.663883 -407.479177 
L 119.663937 -406.195178 
L 119.664236 -404.91118 
L 119.665469 -403.627181 
L 119.669275 -402.343182 
L 119.677978 -401.059184 
L 119.6924 -399.775185 
L 119.708764 -398.491186 
L 119.719035 -397.207187 
L 119.716899 -395.923189 
z
"/>
    </defs>
    <g clip-path="url(#p3c32685b25)">
     <use xlink:href="#mc3cd734a70" x="0" y="553.92575" style="fill: #2c115f; fill-opacity: 0.8"/>
    </g>
   </g>
   <g id="PolyCollection_2">
    <defs>
     <path id="mb8af9629e5" d="M 190.588236 -319.845225 
L 190.550465 -319.845225 
L 190.548097 -321.630554 
L 190.54824 -323.415884 
L 190.550902 -325.201214 
L 190.555811 -326.986543 
L 190.561427 -328.771873 
L 190.565777 -330.557203 
L 190.568124 -332.342532 
L 190.568977 -334.127862 
L 190.568966 -335.913192 
L 190.568087 -337.698521 
L 190.565746 -339.483851 
L 190.561643 -341.269181 
L 190.55707 -343.05451 
L 190.554772 -344.83984 
L 190.556456 -346.62517 
L 190.560852 -348.4105 
L 190.565177 -350.195829 
L 190.567824 -351.981159 
L 190.568936 -353.766489 
L 190.569266 -355.551818 
L 190.569328 -357.337148 
L 190.569272 -359.122478 
L 190.568957 -360.907807 
L 190.567888 -362.693137 
L 190.565305 -364.478467 
L 190.560992 -366.263796 
L 190.556359 -368.049126 
L 190.553734 -369.834456 
L 190.553443 -371.619785 
L 190.552542 -373.405115 
L 190.548282 -375.190445 
L 190.542301 -376.975774 
L 190.539157 -378.761104 
L 190.540093 -380.546434 
L 190.54032 -382.331763 
L 190.534201 -384.117093 
L 190.522074 -385.902423 
L 190.51028 -387.687752 
L 190.505033 -389.473082 
L 190.507752 -391.258412 
L 190.515683 -393.043741 
L 190.524512 -394.829071 
L 190.529856 -396.614401 
L 190.528163 -398.39973 
L 190.517363 -400.18506 
L 190.497403 -401.97039 
L 190.472007 -403.755719 
L 190.449628 -405.541049 
L 190.438765 -407.326379 
L 190.440138 -409.111708 
L 190.445884 -410.897038 
L 190.447713 -412.682368 
L 190.442366 -414.467697 
L 190.427854 -416.253027 
L 190.400964 -418.038357 
L 190.364628 -419.823686 
L 190.333796 -421.609016 
L 190.325751 -423.394346 
L 190.342591 -425.179675 
L 190.36562 -426.965005 
L 190.36667 -428.750335 
L 190.325824 -430.535664 
L 190.245558 -432.320994 
L 190.152139 -434.106324 
L 190.074774 -435.891654 
L 190.014497 -437.676983 
L 189.940986 -439.462313 
L 189.827921 -441.247643 
L 189.680297 -443.032972 
L 189.519606 -444.818302 
L 189.357931 -446.603632 
L 189.19477 -448.388961 
L 189.019227 -450.174291 
L 188.804246 -451.959621 
L 188.517226 -453.74495 
L 188.145154 -455.53028 
L 187.696935 -457.31561 
L 187.184245 -459.100939 
L 186.61578 -460.886269 
L 185.998934 -462.671599 
L 185.327937 -464.456928 
L 184.591605 -466.242258 
L 183.811744 -468.027588 
L 183.042632 -469.812917 
L 182.314965 -471.598247 
L 181.613066 -473.383577 
L 180.926431 -475.168906 
L 180.295393 -476.954236 
L 179.781956 -478.739566 
L 179.423984 -480.524895 
L 179.261499 -482.310225 
L 179.407164 -484.095555 
L 180.051766 -485.880884 
L 181.344001 -487.666214 
L 183.216939 -489.451544 
L 185.342882 -491.236873 
L 187.298223 -493.022203 
L 188.786209 -494.807533 
L 189.732698 -496.592862 
L 191.397822 -496.592862 
L 191.397822 -496.592862 
L 192.315722 -494.807533 
L 193.718811 -493.022203 
L 195.491921 -491.236873 
L 197.334094 -489.451544 
L 198.887697 -487.666214 
L 199.923794 -485.880884 
L 200.430118 -484.095555 
L 200.543586 -482.310225 
L 200.416993 -480.524895 
L 200.136563 -478.739566 
L 199.730627 -476.954236 
L 199.225622 -475.168906 
L 198.668348 -473.383577 
L 198.090131 -471.598247 
L 197.481355 -469.812917 
L 196.827336 -468.027588 
L 196.152812 -466.242258 
L 195.505176 -464.456928 
L 194.905682 -462.671599 
L 194.34655 -460.886269 
L 193.824329 -459.100939 
L 193.347527 -457.31561 
L 192.926081 -455.53028 
L 192.572924 -453.74495 
L 192.298417 -451.959621 
L 192.091612 -450.174291 
L 191.921979 -448.388961 
L 191.763688 -446.603632 
L 191.606245 -444.818302 
L 191.449171 -443.032972 
L 191.304348 -441.247643 
L 191.193091 -439.462313 
L 191.120596 -437.676983 
L 191.061059 -435.891654 
L 190.984521 -434.106324 
L 190.891913 -432.320994 
L 190.812182 -430.535664 
L 190.771551 -428.750335 
L 190.772595 -426.965005 
L 190.795508 -425.179675 
L 190.812255 -423.394346 
L 190.804255 -421.609016 
L 190.773583 -419.823686 
L 190.737407 -418.038357 
L 190.710614 -416.253027 
L 190.696148 -414.467697 
L 190.690817 -412.682368 
L 190.692641 -410.897038 
L 190.69837 -409.111708 
L 190.699739 -407.326379 
L 190.688907 -405.541049 
L 190.666586 -403.755719 
L 190.641241 -401.97039 
L 190.62131 -400.18506 
L 190.610522 -398.39973 
L 190.608831 -396.614401 
L 190.614169 -394.829071 
L 190.622987 -393.043741 
L 190.630908 -391.258412 
L 190.633623 -389.473082 
L 190.628383 -387.687752 
L 190.616604 -385.902423 
L 190.604489 -384.117093 
L 190.598375 -382.331763 
L 190.598601 -380.546434 
L 190.599537 -378.761104 
L 190.596395 -376.975774 
L 190.590418 -375.190445 
L 190.586159 -373.405115 
L 190.585259 -371.619785 
L 190.584967 -369.834456 
L 190.582344 -368.049126 
L 190.577712 -366.263796 
L 190.5734 -364.478467 
L 190.570816 -362.693137 
L 190.569747 -360.907807 
L 190.569433 -359.122478 
L 190.569377 -357.337148 
L 190.569438 -355.551818 
L 190.569769 -353.766489 
L 190.57088 -351.981159 
L 190.573527 -350.195829 
L 190.577852 -348.4105 
L 190.582247 -346.62517 
L 190.58393 -344.83984 
L 190.581632 -343.05451 
L 190.577061 -341.269181 
L 190.572959 -339.483851 
L 190.570618 -337.698521 
L 190.569738 -335.913192 
L 190.569728 -334.127862 
L 190.570581 -332.342532 
L 190.572927 -330.557203 
L 190.577277 -328.771873 
L 190.582891 -326.986543 
L 190.587799 -325.201214 
L 190.59046 -323.415884 
L 190.590603 -321.630554 
L 190.588236 -319.845225 
z
"/>
    </defs>
    <g clip-path="url(#p3c32685b25)">
     <use xlink:href="#mb8af9629e5" x="0" y="553.92575" style="fill: #2c115f; fill-opacity: 0.8"/>
    </g>
   </g>
   <g id="PolyCollection_3">
    <defs>
     <path id="m2370211ad3" d="M 261.482865 -273.417608 
L 261.466794 -273.417608 
L 261.468333 -275.509528 
L 261.471396 -277.601448 
L 261.473644 -279.693368 
L 261.474561 -281.785288 
L 261.47478 -283.877208 
L 261.474737 -285.969128 
L 261.474317 -288.061048 
L 261.472869 -290.152968 
L 261.469787 -292.244888 
L 261.465791 -294.336809 
L 261.462785 -296.428729 
L 261.461818 -298.520649 
L 261.462322 -300.612569 
L 261.462714 -302.704489 
L 261.461792 -304.796409 
L 261.46052 -306.888329 
L 261.460709 -308.980249 
L 261.462057 -311.072169 
L 261.462347 -313.164089 
L 261.460953 -315.256009 
L 261.460312 -317.347929 
L 261.462581 -319.439849 
L 261.466478 -321.531769 
L 261.468335 -323.623689 
L 261.465824 -325.715609 
L 261.460062 -327.807529 
L 261.454052 -329.899449 
L 261.450522 -331.991369 
L 261.451761 -334.083289 
L 261.457847 -336.175209 
L 261.464476 -338.267129 
L 261.467014 -340.359049 
L 261.465626 -342.450969 
L 261.462546 -344.542889 
L 261.456337 -346.634809 
L 261.444184 -348.726729 
L 261.429501 -350.818649 
L 261.420801 -352.910569 
L 261.421453 -355.002489 
L 261.424899 -357.094409 
L 261.422509 -359.186329 
L 261.413799 -361.278249 
L 261.403534 -363.370169 
L 261.390411 -365.46209 
L 261.36973 -367.55401 
L 261.34426 -369.64593 
L 261.321334 -371.73785 
L 261.307654 -373.82977 
L 261.306316 -375.92169 
L 261.306484 -378.01361 
L 261.289202 -380.10553 
L 261.251539 -382.19745 
L 261.205624 -384.28937 
L 261.152577 -386.38129 
L 261.081978 -388.47321 
L 260.997879 -390.56513 
L 260.919066 -392.65705 
L 260.850521 -394.74897 
L 260.773894 -396.84089 
L 260.665756 -398.93281 
L 260.50625 -401.02473 
L 260.277799 -403.11665 
L 259.978179 -405.20857 
L 259.633832 -407.30049 
L 259.277955 -409.39241 
L 258.899406 -411.48433 
L 258.446131 -413.57625 
L 257.892556 -415.66817 
L 257.255783 -417.76009 
L 256.545599 -419.85201 
L 255.745884 -421.94393 
L 254.844878 -424.03585 
L 253.851863 -426.12777 
L 252.779306 -428.21969 
L 251.675242 -430.31161 
L 250.717232 -432.40353 
L 250.166976 -434.49545 
L 250.169482 -436.587371 
L 250.647185 -438.679291 
L 251.386895 -440.771211 
L 252.204846 -442.863131 
L 253.048615 -444.955051 
L 253.967166 -447.046971 
L 254.984779 -449.138891 
L 256.012471 -451.230811 
L 256.897178 -453.322731 
L 257.54214 -455.414651 
L 257.964244 -457.506571 
L 258.267688 -459.598491 
L 258.571658 -461.690411 
L 258.917857 -463.782331 
L 259.265655 -465.874251 
L 259.593433 -467.966171 
L 259.932718 -470.058091 
L 260.301398 -472.150011 
L 260.669581 -474.241931 
L 260.986782 -476.333851 
L 261.21646 -478.425771 
L 261.35573 -480.517691 
L 261.593762 -480.517691 
L 261.593762 -480.517691 
L 261.732413 -478.425771 
L 261.960081 -476.333851 
L 262.272493 -474.241931 
L 262.632224 -472.150011 
L 262.989361 -470.058091 
L 263.315334 -467.966171 
L 263.627835 -465.874251 
L 263.956853 -463.782331 
L 264.281763 -461.690411 
L 264.564929 -459.598491 
L 264.845657 -457.506571 
L 265.232962 -455.414651 
L 265.81767 -453.322731 
L 266.606096 -451.230811 
L 267.502699 -449.138891 
L 268.370761 -447.046971 
L 269.137968 -444.955051 
L 269.829438 -442.863131 
L 270.487937 -440.771211 
L 271.073676 -438.679291 
L 271.447114 -436.587371 
L 271.449063 -434.49545 
L 271.018601 -432.40353 
L 270.257109 -430.31161 
L 269.360032 -428.21969 
L 268.467907 -426.12777 
L 267.62319 -424.03585 
L 266.840641 -421.94393 
L 266.132854 -419.85201 
L 265.493615 -417.76009 
L 264.911696 -415.66817 
L 264.398937 -413.57625 
L 263.974235 -411.48433 
L 263.61615 -409.39241 
L 263.276655 -407.30049 
L 262.945489 -405.20857 
L 262.655176 -403.11665 
L 262.432457 -401.02473 
L 262.276247 -398.93281 
L 262.170011 -396.84089 
L 262.094569 -394.74897 
L 262.02697 -392.65705 
L 261.94911 -390.56513 
L 261.865867 -388.47321 
L 261.795861 -386.38129 
L 261.743182 -384.28937 
L 261.697534 -382.19745 
L 261.660052 -380.10553 
L 261.642842 -378.01361 
L 261.643009 -375.92169 
L 261.641676 -373.82977 
L 261.628048 -371.73785 
L 261.605199 -369.64593 
L 261.579799 -367.55401 
L 261.559165 -365.46209 
L 261.546066 -363.370169 
L 261.535817 -361.278249 
L 261.527118 -359.186329 
L 261.524731 -357.094409 
L 261.528173 -355.002489 
L 261.528824 -352.910569 
L 261.520134 -350.818649 
L 261.505465 -348.726729 
L 261.493319 -346.634809 
L 261.487112 -344.542889 
L 261.484033 -342.450969 
L 261.482644 -340.359049 
L 261.485182 -338.267129 
L 261.491809 -336.175209 
L 261.497893 -334.083289 
L 261.499131 -331.991369 
L 261.495603 -329.899449 
L 261.489595 -327.807529 
L 261.483835 -325.715609 
L 261.481324 -323.623689 
L 261.48318 -321.531769 
L 261.487076 -319.439849 
L 261.489346 -317.347929 
L 261.488704 -315.256009 
L 261.487311 -313.164089 
L 261.487601 -311.072169 
L 261.488949 -308.980249 
L 261.489137 -306.888329 
L 261.487866 -304.796409 
L 261.486944 -302.704489 
L 261.487336 -300.612569 
L 261.487839 -298.520649 
L 261.486873 -296.428729 
L 261.483868 -294.336809 
L 261.479872 -292.244888 
L 261.476791 -290.152968 
L 261.475343 -288.061048 
L 261.474922 -285.969128 
L 261.474879 -283.877208 
L 261.475098 -281.785288 
L 261.476016 -279.693368 
L 261.478263 -277.601448 
L 261.481326 -275.509528 
L 261.482865 -273.417608 
z
"/>
    </defs>
    <g clip-path="url(#p3c32685b25)">
     <use xlink:href="#m2370211ad3" x="0" y="553.92575" style="fill: #2c115f; fill-opacity: 0.8"/>
    </g>
   </g>
   <g id="PolyCollection_4">
    <defs>
     <path id="m1399f26a71" d="M 332.384886 -157.023683 
L 332.375728 -157.023683 
L 332.377613 -159.990994 
L 332.379758 -162.958306 
L 332.380269 -165.925617 
L 332.380306 -168.892929 
L 332.380307 -171.86024 
L 332.380307 -174.827552 
L 332.380307 -177.794863 
L 332.380307 -180.762175 
L 332.380307 -183.729486 
L 332.380307 -186.696798 
L 332.380307 -189.664109 
L 332.380307 -192.631421 
L 332.380307 -195.598732 
L 332.380307 -198.566044 
L 332.380307 -201.533355 
L 332.380307 -204.500667 
L 332.380307 -207.467978 
L 332.380307 -210.435289 
L 332.380307 -213.402601 
L 332.380307 -216.369912 
L 332.380307 -219.337224 
L 332.380307 -222.304535 
L 332.380276 -225.271847 
L 332.379832 -228.239158 
L 332.377765 -231.20647 
L 332.374943 -234.173781 
L 332.37164 -237.141093 
L 332.363673 -240.108404 
L 332.362046 -243.075716 
L 332.369808 -246.043027 
L 332.376367 -249.010339 
L 332.377898 -251.97765 
L 332.375967 -254.944962 
L 332.37661 -257.912273 
L 332.37845 -260.879585 
L 332.37407 -263.846896 
L 332.362021 -266.814208 
L 332.358241 -269.781519 
L 332.367087 -272.748831 
L 332.374028 -275.716142 
L 332.375303 -278.683454 
L 332.374595 -281.650765 
L 332.371045 -284.618077 
L 332.3609 -287.585388 
L 332.356696 -290.5527 
L 332.36208 -293.520011 
L 332.365991 -296.487323 
L 332.369018 -299.454634 
L 332.372066 -302.421946 
L 332.365416 -305.389257 
L 332.355105 -308.356569 
L 332.350185 -311.32388 
L 332.343199 -314.291192 
L 332.332382 -317.258503 
L 332.31368 -320.225815 
L 332.291409 -323.193126 
L 332.2703 -326.160438 
L 332.235396 -329.127749 
L 332.206855 -332.095061 
L 332.187045 -335.062372 
L 332.165799 -338.029684 
L 332.148295 -340.996995 
L 332.103439 -343.964307 
L 332.063024 -346.931618 
L 331.993137 -349.89893 
L 331.868991 -352.866241 
L 331.756068 -355.833553 
L 331.674751 -358.800864 
L 331.536137 -361.768176 
L 331.341013 -364.735487 
L 331.119709 -367.702799 
L 330.7977 -370.67011 
L 330.332349 -373.637422 
L 329.769673 -376.604733 
L 329.126945 -379.572045 
L 328.312841 -382.539356 
L 327.230588 -385.506668 
L 326.040032 -388.473979 
L 324.828957 -391.441291 
L 323.510936 -394.408602 
L 322.350634 -397.375914 
L 321.611597 -400.343225 
L 321.205131 -403.310537 
L 321.072454 -406.277848 
L 321.408483 -409.24516 
L 322.2162 -412.212471 
L 323.224252 -415.179783 
L 324.219953 -418.147094 
L 325.197507 -421.114406 
L 326.352208 -424.081717 
L 327.711783 -427.049029 
L 329.018881 -430.01634 
L 330.078328 -432.983651 
L 330.954698 -435.950963 
L 331.633461 -438.918274 
L 332.043479 -441.885586 
L 332.241433 -444.852897 
L 332.335625 -447.820209 
L 332.367929 -450.78752 
L 332.392683 -450.78752 
L 332.392683 -450.78752 
L 332.424966 -447.820209 
L 332.518955 -444.852897 
L 332.715802 -441.885586 
L 333.120624 -438.918274 
L 333.782314 -435.950963 
L 334.621364 -432.983651 
L 335.613383 -430.01634 
L 336.80485 -427.049029 
L 338.00767 -424.081717 
L 339.001213 -421.114406 
L 339.822957 -418.147094 
L 340.642281 -415.179783 
L 341.454157 -412.212471 
L 342.09226 -409.24516 
L 342.354541 -406.277848 
L 342.251203 -403.310537 
L 341.932821 -400.343225 
L 341.346889 -397.375914 
L 340.408176 -394.408602 
L 339.313074 -391.441291 
L 338.27877 -388.473979 
L 337.234735 -385.506668 
L 336.261328 -382.539356 
L 335.513292 -379.572045 
L 334.912861 -376.604733 
L 334.379905 -373.637422 
L 333.933879 -370.67011 
L 333.622415 -367.702799 
L 333.407001 -364.735487 
L 333.216145 -361.768176 
L 333.080033 -358.800864 
L 332.999978 -355.833553 
L 332.888555 -352.866241 
L 332.765716 -349.89893 
L 332.696406 -346.931618 
L 332.656273 -343.964307 
L 332.611686 -340.996995 
L 332.594273 -338.029684 
L 332.57313 -335.062372 
L 332.553405 -332.095061 
L 332.524971 -329.127749 
L 332.490172 -326.160438 
L 332.469113 -323.193126 
L 332.446882 -320.225815 
L 332.428205 -317.258503 
L 332.417399 -314.291192 
L 332.410419 -311.32388 
L 332.405502 -308.356569 
L 332.395196 -305.389257 
L 332.388548 -302.421946 
L 332.391595 -299.454634 
L 332.394621 -296.487323 
L 332.398531 -293.520011 
L 332.403912 -290.5527 
L 332.39971 -287.585388 
L 332.389569 -284.618077 
L 332.386019 -281.650765 
L 332.385311 -278.683454 
L 332.386586 -275.716142 
L 332.393526 -272.748831 
L 332.402368 -269.781519 
L 332.398589 -266.814208 
L 332.386544 -263.846896 
L 332.382165 -260.879585 
L 332.384004 -257.912273 
L 332.384647 -254.944962 
L 332.382716 -251.97765 
L 332.384247 -249.010339 
L 332.390805 -246.043027 
L 332.398565 -243.075716 
L 332.396938 -240.108404 
L 332.388974 -237.141093 
L 332.385671 -234.173781 
L 332.382849 -231.20647 
L 332.380782 -228.239158 
L 332.380338 -225.271847 
L 332.380308 -222.304535 
L 332.380307 -219.337224 
L 332.380307 -216.369912 
L 332.380307 -213.402601 
L 332.380307 -210.435289 
L 332.380307 -207.467978 
L 332.380307 -204.500667 
L 332.380307 -201.533355 
L 332.380307 -198.566044 
L 332.380307 -195.598732 
L 332.380307 -192.631421 
L 332.380307 -189.664109 
L 332.380307 -186.696798 
L 332.380307 -183.729486 
L 332.380307 -180.762175 
L 332.380307 -177.794863 
L 332.380307 -174.827552 
L 332.380307 -171.86024 
L 332.380308 -168.892929 
L 332.380346 -165.925617 
L 332.380856 -162.958306 
L 332.383002 -159.990994 
L 332.384886 -157.023683 
z
"/>
    </defs>
    <g clip-path="url(#p3c32685b25)">
     <use xlink:href="#m1399f26a71" x="0" y="553.92575" style="fill: #2c115f; fill-opacity: 0.8"/>
    </g>
   </g>
   <g id="PolyCollection_5">
    <defs>
     <path id="m87d00f5186" d="M 403.288304 -120.993841 
L 403.283265 -120.993841 
L 403.283316 -123.927643 
L 403.283209 -126.861444 
L 403.283958 -129.795246 
L 403.285253 -132.729048 
L 403.285727 -135.662849 
L 403.285782 -138.596651 
L 403.285785 -141.530453 
L 403.285778 -144.464255 
L 403.285658 -147.398056 
L 403.28493 -150.331858 
L 403.283643 -153.26566 
L 403.283785 -156.199462 
L 403.284837 -159.133263 
L 403.284018 -162.067065 
L 403.281671 -165.000867 
L 403.281823 -167.934668 
L 403.284166 -170.86847 
L 403.284688 -173.802272 
L 403.283154 -176.736074 
L 403.28178 -179.669875 
L 403.281279 -182.603677 
L 403.280574 -185.537479 
L 403.279729 -188.471281 
L 403.281039 -191.405082 
L 403.282633 -194.338884 
L 403.281669 -197.272686 
L 403.280592 -200.206487 
L 403.279625 -203.140289 
L 403.277868 -206.074091 
L 403.276648 -209.007893 
L 403.274858 -211.941694 
L 403.270664 -214.875496 
L 403.266754 -217.809298 
L 403.264801 -220.7431 
L 403.267199 -223.676901 
L 403.272007 -226.610703 
L 403.277753 -229.544505 
L 403.277493 -232.478307 
L 403.268523 -235.412108 
L 403.256709 -238.34591 
L 403.243007 -241.279712 
L 403.234106 -244.213513 
L 403.235564 -247.147315 
L 403.239901 -250.081117 
L 403.23753 -253.014919 
L 403.228522 -255.94872 
L 403.223175 -258.882522 
L 403.217102 -261.816324 
L 403.201355 -264.750126 
L 403.179648 -267.683927 
L 403.163491 -270.617729 
L 403.150194 -273.551531 
L 403.137216 -276.485332 
L 403.113722 -279.419134 
L 403.073605 -282.352936 
L 403.051509 -285.286738 
L 403.037042 -288.220539 
L 402.983934 -291.154341 
L 402.903715 -294.088143 
L 402.846038 -297.021945 
L 402.807396 -299.955746 
L 402.779417 -302.889548 
L 402.750832 -305.82335 
L 402.662317 -308.757151 
L 402.515645 -311.690953 
L 402.341997 -314.624755 
L 402.161437 -317.558557 
L 401.963606 -320.492358 
L 401.712688 -323.42616 
L 401.394598 -326.359962 
L 401.036414 -329.293764 
L 400.628539 -332.227565 
L 400.071676 -335.161367 
L 399.448548 -338.095169 
L 398.933582 -341.02897 
L 398.331165 -343.962772 
L 397.44597 -346.896574 
L 396.40257 -349.830376 
L 395.338735 -352.764177 
L 394.377688 -355.697979 
L 393.530798 -358.631781 
L 392.746235 -361.565583 
L 392.179976 -364.499384 
L 391.977931 -367.433186 
L 392.048892 -370.366988 
L 392.446138 -373.300789 
L 393.270901 -376.234591 
L 394.234904 -379.168393 
L 395.236288 -382.102195 
L 396.435202 -385.035996 
L 397.728476 -387.969798 
L 399.011653 -390.9036 
L 400.249287 -393.837402 
L 401.287888 -396.771203 
L 402.048388 -399.705005 
L 402.587022 -402.638807 
L 402.941532 -405.572609 
L 403.14208 -408.50641 
L 403.236925 -411.440212 
L 403.334616 -411.440212 
L 403.334616 -411.440212 
L 403.429246 -408.50641 
L 403.628644 -405.572609 
L 403.978829 -402.638807 
L 404.505361 -399.705005 
L 405.237631 -396.771203 
L 406.21716 -393.837402 
L 407.354518 -390.9036 
L 408.500747 -387.969798 
L 409.623415 -385.035996 
L 410.63612 -382.102195 
L 411.46204 -379.168393 
L 412.240547 -376.234591 
L 412.894059 -373.300789 
L 413.204786 -370.366988 
L 413.260018 -367.433186 
L 413.102538 -364.499384 
L 412.657592 -361.565583 
L 412.032234 -358.631781 
L 411.345361 -355.697979 
L 410.550612 -352.764177 
L 409.651332 -349.830376 
L 408.74873 -346.896574 
L 407.966474 -343.962772 
L 407.425202 -341.02897 
L 406.956656 -338.095169 
L 406.382351 -335.161367 
L 405.86218 -332.227565 
L 405.47695 -329.293764 
L 405.135657 -326.359962 
L 404.830191 -323.42616 
L 404.587637 -320.492358 
L 404.395399 -317.558557 
L 404.21917 -314.624755 
L 404.048983 -311.690953 
L 403.904696 -308.757151 
L 403.81738 -305.82335 
L 403.789143 -302.889548 
L 403.761486 -299.955746 
L 403.72326 -297.021945 
L 403.666138 -294.088143 
L 403.586564 -291.154341 
L 403.533799 -288.220539 
L 403.519414 -285.286738 
L 403.497435 -282.352936 
L 403.457499 -279.419134 
L 403.434093 -276.485332 
L 403.421158 -273.551531 
L 403.407902 -270.617729 
L 403.391788 -267.683927 
L 403.370131 -264.750126 
L 403.354412 -261.816324 
L 403.348348 -258.882522 
L 403.343009 -255.94872 
L 403.334012 -253.014919 
L 403.331643 -250.081117 
L 403.335976 -247.147315 
L 403.337432 -244.213513 
L 403.328541 -241.279712 
L 403.31485 -238.34591 
L 403.303043 -235.412108 
L 403.294076 -232.478307 
L 403.293815 -229.544505 
L 403.29956 -226.610703 
L 403.304367 -223.676901 
L 403.306763 -220.7431 
L 403.304811 -217.809298 
L 403.300902 -214.875496 
L 403.296711 -211.941694 
L 403.29492 -209.007893 
L 403.293701 -206.074091 
L 403.291944 -203.140289 
L 403.290977 -200.206487 
L 403.2899 -197.272686 
L 403.288936 -194.338884 
L 403.29053 -191.405082 
L 403.29184 -188.471281 
L 403.290995 -185.537479 
L 403.29029 -182.603677 
L 403.289789 -179.669875 
L 403.288416 -176.736074 
L 403.286881 -173.802272 
L 403.287403 -170.86847 
L 403.289746 -167.934668 
L 403.289899 -165.000867 
L 403.287552 -162.067065 
L 403.286733 -159.133263 
L 403.287784 -156.199462 
L 403.287927 -153.26566 
L 403.28664 -150.331858 
L 403.285911 -147.398056 
L 403.285792 -144.464255 
L 403.285785 -141.530453 
L 403.285787 -138.596651 
L 403.285843 -135.662849 
L 403.286317 -132.729048 
L 403.287611 -129.795246 
L 403.28836 -126.861444 
L 403.288253 -123.927643 
L 403.288304 -120.993841 
z
"/>
    </defs>
    <g clip-path="url(#p3c32685b25)">
     <use xlink:href="#m87d00f5186" x="0" y="553.92575" style="fill: #2c115f; fill-opacity: 0.8"/>
    </g>
   </g>
   <g id="PolyCollection_6">
    <defs>
     <path id="m26d8842b35" d="M 474.193741 -15.426564 
L 474.188784 -15.426564 
L 474.189113 -19.019695 
L 474.190633 -22.612826 
L 474.191204 -26.205957 
L 474.191261 -29.799088 
L 474.191262 -33.392219 
L 474.191262 -36.98535 
L 474.191262 -40.57848 
L 474.191262 -44.171611 
L 474.191262 -47.764742 
L 474.191262 -51.357873 
L 474.191262 -54.951004 
L 474.191262 -58.544135 
L 474.191262 -62.137266 
L 474.191262 -65.730397 
L 474.191262 -69.323528 
L 474.191262 -72.916659 
L 474.191258 -76.50979 
L 474.191136 -80.102921 
L 474.190203 -83.696052 
L 474.18859 -87.289183 
L 474.189207 -90.882314 
L 474.190643 -94.475445 
L 474.190209 -98.068576 
L 474.188778 -101.661707 
L 474.18833 -105.254838 
L 474.187075 -108.847969 
L 474.185412 -112.4411 
L 474.185213 -116.034231 
L 474.186456 -119.627361 
L 474.187786 -123.220492 
L 474.187142 -126.813623 
L 474.186328 -130.406754 
L 474.183786 -133.999885 
L 474.180346 -137.593016 
L 474.173842 -141.186147 
L 474.169338 -144.779278 
L 474.168986 -148.372409 
L 474.167112 -151.96554 
L 474.166973 -155.558671 
L 474.159651 -159.151802 
L 474.15546 -162.744933 
L 474.15385 -166.338064 
L 474.144284 -169.931195 
L 474.14141 -173.524326 
L 474.145221 -177.117457 
L 474.147963 -180.710588 
L 474.140291 -184.303719 
L 474.126418 -187.89685 
L 474.110492 -191.489981 
L 474.093357 -195.083112 
L 474.082753 -198.676242 
L 474.074922 -202.269373 
L 474.043966 -205.862504 
L 473.994318 -209.455635 
L 473.942019 -213.048766 
L 473.909126 -216.641897 
L 473.882199 -220.235028 
L 473.8381 -223.828159 
L 473.783187 -227.42129 
L 473.71842 -231.014421 
L 473.618617 -234.607552 
L 473.52295 -238.200683 
L 473.434899 -241.793814 
L 473.319259 -245.386945 
L 473.157335 -248.980076 
L 472.945398 -252.573207 
L 472.705959 -256.166338 
L 472.470687 -259.759469 
L 472.236017 -263.3526 
L 471.933911 -266.945731 
L 471.533518 -270.538862 
L 471.079497 -274.131993 
L 470.550474 -277.725123 
L 469.907096 -281.318254 
L 469.248908 -284.911385 
L 468.519149 -288.504516 
L 467.662467 -292.097647 
L 466.763919 -295.690778 
L 465.755944 -299.283909 
L 464.775862 -302.87704 
L 464.016719 -306.470171 
L 463.395473 -310.063302 
L 462.883409 -313.656433 
L 462.986139 -317.249564 
L 463.685233 -320.842695 
L 464.553546 -324.435826 
L 465.433354 -328.028957 
L 466.520781 -331.622088 
L 467.707692 -335.215219 
L 468.900072 -338.80835 
L 470.133131 -342.401481 
L 471.2684 -345.994612 
L 472.26775 -349.587743 
L 473.098546 -353.180873 
L 473.64996 -356.774004 
L 473.95133 -360.367135 
L 474.104422 -363.960266 
L 474.168243 -367.553397 
L 474.186124 -371.146528 
L 474.1964 -371.146528 
L 474.1964 -371.146528 
L 474.214275 -367.553397 
L 474.278014 -363.960266 
L 474.430517 -360.367135 
L 474.729127 -356.774004 
L 475.270058 -353.180873 
L 476.072052 -349.587743 
L 477.016598 -345.994612 
L 478.063783 -342.401481 
L 479.171199 -338.80835 
L 480.213541 -335.215219 
L 481.224301 -331.622088 
L 482.12772 -328.028957 
L 482.843339 -324.435826 
L 483.536564 -320.842695 
L 484.085508 -317.249564 
L 484.165496 -313.656433 
L 483.765072 -310.063302 
L 483.273425 -306.470171 
L 482.663781 -302.87704 
L 481.861928 -299.283909 
L 481.019375 -295.690778 
L 480.252538 -292.097647 
L 479.507188 -288.504516 
L 478.861003 -284.911385 
L 478.269087 -281.318254 
L 477.681952 -277.725123 
L 477.192724 -274.131993 
L 476.768126 -270.538862 
L 476.389999 -266.945731 
L 476.10238 -263.3526 
L 475.877574 -259.759469 
L 475.650962 -256.166338 
L 475.419063 -252.573207 
L 475.212718 -248.980076 
L 475.054377 -245.386945 
L 474.94093 -241.793814 
L 474.854342 -238.200683 
L 474.760061 -234.607552 
L 474.661479 -231.014421 
L 474.59738 -227.42129 
L 474.542958 -223.828159 
L 474.499201 -220.235028 
L 474.472462 -216.641897 
L 474.439774 -213.048766 
L 474.387749 -209.455635 
L 474.338303 -205.862504 
L 474.307443 -202.269373 
L 474.299633 -198.676242 
L 474.289054 -195.083112 
L 474.271956 -191.489981 
L 474.256057 -187.89685 
L 474.242203 -184.303719 
L 474.234539 -180.710588 
L 474.237279 -177.117457 
L 474.241085 -173.524326 
L 474.238214 -169.931195 
L 474.228658 -166.338064 
L 474.22705 -162.744933 
L 474.222862 -159.151802 
L 474.215544 -155.558671 
L 474.215405 -151.96554 
L 474.213533 -148.372409 
L 474.21318 -144.779278 
L 474.208679 -141.186147 
L 474.202177 -137.593016 
L 474.198737 -133.999885 
L 474.196196 -130.406754 
L 474.195382 -126.813623 
L 474.194739 -123.220492 
L 474.196068 -119.627361 
L 474.197311 -116.034231 
L 474.197112 -112.4411 
L 474.195449 -108.847969 
L 474.194194 -105.254838 
L 474.193746 -101.661707 
L 474.192316 -98.068576 
L 474.191881 -94.475445 
L 474.193317 -90.882314 
L 474.193934 -87.289183 
L 474.192322 -83.696052 
L 474.191389 -80.102921 
L 474.191267 -76.50979 
L 474.191262 -72.916659 
L 474.191262 -69.323528 
L 474.191262 -65.730397 
L 474.191262 -62.137266 
L 474.191262 -58.544135 
L 474.191262 -54.951004 
L 474.191262 -51.357873 
L 474.191262 -47.764742 
L 474.191262 -44.171611 
L 474.191262 -40.57848 
L 474.191262 -36.98535 
L 474.191262 -33.392219 
L 474.191264 -29.799088 
L 474.19132 -26.205957 
L 474.191892 -22.612826 
L 474.193412 -19.019695 
L 474.193741 -15.426564 
z
"/>
    </defs>
    <g clip-path="url(#p3c32685b25)">
     <use xlink:href="#m26d8842b35" x="0" y="553.92575" style="fill: #2c115f; fill-opacity: 0.8"/>
    </g>
   </g>
   <g id="PolyCollection_7">
    <defs>
     <path id="mfb1106d1c3" d="M 545.097897 15.497877 
L 545.095582 15.497877 
L 545.095375 12.255638 
L 545.095511 9.013399 
L 545.095841 5.77116 
L 545.096318 2.528921 
L 545.095675 -0.713318 
L 545.095068 -3.955556 
L 545.096073 -7.197795 
L 545.096671 -10.440034 
L 545.096662 -13.682273 
L 545.096233 -16.924512 
L 545.095881 -20.166751 
L 545.096088 -23.408989 
L 545.095152 -26.651228 
L 545.094426 -29.893467 
L 545.095657 -33.135706 
L 545.096465 -36.377945 
L 545.095864 -39.620184 
L 545.094649 -42.862422 
L 545.09412 -46.104661 
L 545.093638 -49.3469 
L 545.093068 -52.589139 
L 545.091715 -55.831378 
L 545.090008 -59.073617 
L 545.087143 -62.315855 
L 545.08565 -65.558094 
L 545.087736 -68.800333 
L 545.089643 -72.042572 
L 545.088699 -75.284811 
L 545.084647 -78.52705 
L 545.083094 -81.769288 
L 545.081207 -85.011527 
L 545.07918 -88.253766 
L 545.081575 -91.496005 
L 545.082457 -94.738244 
L 545.080149 -97.980483 
L 545.07278 -101.222722 
L 545.057636 -104.46496 
L 545.05178 -107.707199 
L 545.053136 -110.949438 
L 545.047359 -114.191677 
L 545.040794 -117.433916 
L 545.035809 -120.676155 
L 545.023827 -123.918393 
L 545.005273 -127.160632 
L 544.983182 -130.402871 
L 544.973037 -133.64511 
L 544.962666 -136.887349 
L 544.952567 -140.129588 
L 544.940487 -143.371826 
L 544.903144 -146.614065 
L 544.867714 -149.856304 
L 544.836111 -153.098543 
L 544.801233 -156.340782 
L 544.757545 -159.583021 
L 544.706259 -162.825259 
L 544.665728 -166.067498 
L 544.610264 -169.309737 
L 544.549105 -172.551976 
L 544.483482 -175.794215 
L 544.385787 -179.036454 
L 544.280552 -182.278692 
L 544.148197 -185.520931 
L 544.005751 -188.76317 
L 543.87046 -192.005409 
L 543.691029 -195.247648 
L 543.47386 -198.489887 
L 543.228372 -201.732125 
L 542.909865 -204.974364 
L 542.600731 -208.216603 
L 542.268518 -211.458842 
L 541.837253 -214.701081 
L 541.362542 -217.94332 
L 540.884463 -221.185558 
L 540.303981 -224.427797 
L 539.666445 -227.670036 
L 538.988587 -230.912275 
L 538.232554 -234.154514 
L 537.451 -237.396753 
L 536.478546 -240.638991 
L 535.503506 -243.88123 
L 534.742573 -247.123469 
L 534.196253 -250.365708 
L 533.820194 -253.607947 
L 533.788886 -256.850186 
L 534.276703 -260.092425 
L 535.201078 -263.334663 
L 536.412162 -266.576902 
L 538.038091 -269.819141 
L 539.866522 -273.06138 
L 541.539547 -276.303619 
L 542.876633 -279.545858 
L 543.80593 -282.788096 
L 544.429882 -286.030335 
L 544.809223 -289.272574 
L 544.989161 -292.514813 
L 545.061464 -295.757052 
L 545.085227 -298.999291 
L 545.09213 -302.241529 
L 545.094986 -305.483768 
L 545.098494 -305.483768 
L 545.098494 -305.483768 
L 545.101349 -302.241529 
L 545.108251 -298.999291 
L 545.132001 -295.757052 
L 545.204181 -292.514813 
L 545.383284 -289.272574 
L 545.758387 -286.030335 
L 546.368169 -282.788096 
L 547.260127 -279.545858 
L 548.510514 -276.303619 
L 550.022632 -273.06138 
L 551.612025 -269.819141 
L 552.972941 -266.576902 
L 553.956086 -263.334663 
L 554.689608 -260.092425 
L 555.070973 -256.850186 
L 555.046615 -253.607947 
L 554.752772 -250.365708 
L 554.321719 -247.123469 
L 553.712957 -243.88123 
L 552.918309 -240.638991 
L 552.108975 -237.396753 
L 551.44601 -234.154514 
L 550.7938 -230.912275 
L 550.199702 -227.670036 
L 549.632713 -224.427797 
L 549.109382 -221.185558 
L 548.673205 -217.94332 
L 548.235403 -214.701081 
L 547.83355 -211.458842 
L 547.52128 -208.216603 
L 547.228559 -204.974364 
L 546.924774 -201.732125 
L 546.689102 -198.489887 
L 546.479497 -195.247648 
L 546.305516 -192.005409 
L 546.173852 -188.76317 
L 546.034776 -185.520931 
L 545.905136 -182.278692 
L 545.801773 -179.036454 
L 545.705588 -175.794215 
L 545.640855 -172.551976 
L 545.580436 -169.309737 
L 545.525569 -166.067498 
L 545.485428 -162.825259 
L 545.434581 -159.583021 
L 545.391219 -156.340782 
L 545.356568 -153.098543 
L 545.325148 -149.856304 
L 545.289894 -146.614065 
L 545.252704 -143.371826 
L 545.240668 -140.129588 
L 545.230601 -136.887349 
L 545.220262 -133.64511 
L 545.210146 -130.402871 
L 545.188108 -127.160632 
L 545.16959 -123.918393 
L 545.157627 -120.676155 
L 545.152649 -117.433916 
L 545.146092 -114.191677 
L 545.140321 -110.949438 
L 545.141676 -107.707199 
L 545.135825 -104.46496 
L 545.120693 -101.222722 
L 545.113327 -97.980483 
L 545.11102 -94.738244 
L 545.111902 -91.496005 
L 545.114295 -88.253766 
L 545.11227 -85.011527 
L 545.110383 -81.769288 
L 545.10883 -78.52705 
L 545.10478 -75.284811 
L 545.103836 -72.042572 
L 545.105742 -68.800333 
L 545.107827 -65.558094 
L 545.106336 -62.315855 
L 545.103471 -59.073617 
L 545.101764 -55.831378 
L 545.100411 -52.589139 
L 545.099841 -49.3469 
L 545.09936 -46.104661 
L 545.098831 -42.862422 
L 545.097615 -39.620184 
L 545.097014 -36.377945 
L 545.097823 -33.135706 
L 545.099053 -29.893467 
L 545.098328 -26.651228 
L 545.097391 -23.408989 
L 545.097598 -20.166751 
L 545.097247 -16.924512 
L 545.096817 -13.682273 
L 545.096809 -10.440034 
L 545.097406 -7.197795 
L 545.098412 -3.955556 
L 545.097805 -0.713318 
L 545.097162 2.528921 
L 545.097638 5.77116 
L 545.097968 9.013399 
L 545.098105 12.255638 
L 545.097897 15.497877 
z
"/>
    </defs>
    <g clip-path="url(#p3c32685b25)">
     <use xlink:href="#mfb1106d1c3" x="0" y="553.92575" style="fill: #2c115f; fill-opacity: 0.8"/>
    </g>
   </g>
   <g id="PolyCollection_8">
    <defs>
     <path id="m47c2db4148" d="M 616.002671 104.007351 
L 616.001764 104.007351 
L 616.002085 100.322015 
L 616.002214 96.636679 
L 616.002217 92.951343 
L 616.002217 89.266007 
L 616.002217 85.580672 
L 616.002217 81.895336 
L 616.002217 78.21 
L 616.002217 74.524664 
L 616.002217 70.839328 
L 616.002217 67.153993 
L 616.002217 63.468657 
L 616.002208 59.783321 
L 616.001998 56.097985 
L 616.001793 52.412649 
L 616.002147 48.727314 
L 616.002216 45.041978 
L 616.002216 41.356642 
L 616.002133 37.671306 
L 616.001768 33.98597 
L 616.001646 30.300634 
L 616.000774 26.615299 
L 616.0012 22.929963 
L 616.001463 19.244627 
L 616.000981 15.559291 
L 615.999707 11.873955 
L 615.999503 8.18862 
L 616.000064 4.503284 
L 615.999438 0.817948 
L 615.998451 -2.867388 
L 615.998811 -6.552724 
L 615.999165 -10.238059 
L 615.998941 -13.923395 
L 615.998523 -17.608731 
L 615.997884 -21.294067 
L 615.996217 -24.979403 
L 615.995738 -28.664739 
L 615.993673 -32.350074 
L 615.991526 -36.03541 
L 615.990437 -39.720746 
L 615.986644 -43.406082 
L 615.987319 -47.091418 
L 615.984036 -50.776753 
L 615.978699 -54.462089 
L 615.976833 -58.147425 
L 615.97496 -61.832761 
L 615.975324 -65.518097 
L 615.969313 -69.203433 
L 615.957667 -72.888768 
L 615.946724 -76.574104 
L 615.944523 -80.25944 
L 615.937832 -83.944776 
L 615.922691 -87.630112 
L 615.903191 -91.315447 
L 615.879022 -95.000783 
L 615.861813 -98.686119 
L 615.848957 -102.371455 
L 615.824421 -106.056791 
L 615.803093 -109.742126 
L 615.773524 -113.427462 
L 615.727222 -117.112798 
L 615.666079 -120.798134 
L 615.615469 -124.48347 
L 615.559059 -128.168806 
L 615.494802 -131.854141 
L 615.40512 -135.539477 
L 615.310214 -139.224813 
L 615.209026 -142.910149 
L 615.069284 -146.595485 
L 614.934302 -150.28082 
L 614.750754 -153.966156 
L 614.511918 -157.651492 
L 614.237394 -161.336828 
L 613.944077 -165.022164 
L 613.600636 -168.7075 
L 613.217211 -172.392835 
L 612.812336 -176.078171 
L 612.315008 -179.763507 
L 611.734031 -183.448843 
L 611.087522 -187.134179 
L 610.307217 -190.819514 
L 609.45796 -194.50485 
L 608.583196 -198.190186 
L 607.59404 -201.875522 
L 606.613167 -205.560858 
L 605.682089 -209.246193 
L 604.939834 -212.931529 
L 604.694364 -216.616865 
L 604.910482 -220.302201 
L 605.638103 -223.987537 
L 607.009394 -227.672873 
L 609.000738 -231.358208 
L 611.082441 -235.043544 
L 613.002536 -238.72888 
L 614.475473 -242.414216 
L 615.363652 -246.099552 
L 615.777855 -249.784887 
L 615.944337 -253.470223 
L 615.991446 -257.155559 
L 616.000534 -260.840895 
L 616.0039 -260.840895 
L 616.0039 -260.840895 
L 616.012987 -257.155559 
L 616.060057 -253.470223 
L 616.225987 -249.784887 
L 616.636004 -246.099552 
L 617.501923 -242.414216 
L 618.899268 -238.72888 
L 620.651798 -235.043544 
L 622.46877 -231.358208 
L 624.131072 -227.672873 
L 625.23509 -223.987537 
L 625.807977 -220.302201 
L 625.976451 -216.616865 
L 625.785036 -212.931529 
L 625.200175 -209.246193 
L 624.453398 -205.560858 
L 623.650435 -201.875522 
L 622.823297 -198.190186 
L 622.076817 -194.50485 
L 621.338239 -190.819514 
L 620.64726 -187.134179 
L 620.065562 -183.448843 
L 619.535557 -179.763507 
L 619.076289 -176.078171 
L 618.698541 -172.392835 
L 618.337564 -168.7075 
L 618.011521 -165.022164 
L 617.73101 -161.336828 
L 617.466743 -157.651492 
L 617.235455 -153.966156 
L 617.056833 -150.28082 
L 616.924984 -146.595485 
L 616.788048 -142.910149 
L 616.688611 -139.224813 
L 616.595133 -135.539477 
L 616.50661 -131.854141 
L 616.443068 -128.168806 
L 616.387208 -124.48347 
L 616.337026 -120.798134 
L 616.276322 -117.112798 
L 616.230294 -113.427462 
L 616.200875 -109.742126 
L 616.179641 -106.056791 
L 616.1552 -102.371455 
L 616.142389 -98.686119 
L 616.125233 -95.000783 
L 616.101128 -91.315447 
L 616.081669 -87.630112 
L 616.066553 -83.944776 
L 616.059872 -80.25944 
L 616.057674 -76.574104 
L 616.046744 -72.888768 
L 616.035108 -69.203433 
L 616.029102 -65.518097 
L 616.029466 -61.832761 
L 616.027593 -58.147425 
L 616.025729 -54.462089 
L 616.020394 -50.776753 
L 616.017112 -47.091418 
L 616.017788 -43.406082 
L 616.013996 -39.720746 
L 616.012907 -36.03541 
L 616.010761 -32.350074 
L 616.008695 -28.664739 
L 616.008217 -24.979403 
L 616.006551 -21.294067 
L 616.005911 -17.608731 
L 616.005494 -13.923395 
L 616.00527 -10.238059 
L 616.005624 -6.552724 
L 616.005984 -2.867388 
L 616.004996 0.817948 
L 616.00437 4.503284 
L 616.004931 8.18862 
L 616.004727 11.873955 
L 616.003453 15.559291 
L 616.002971 19.244627 
L 616.003234 22.929963 
L 616.00366 26.615299 
L 616.002788 30.300634 
L 616.002666 33.98597 
L 616.002302 37.671306 
L 616.002219 41.356642 
L 616.002218 45.041978 
L 616.002287 48.727314 
L 616.002642 52.412649 
L 616.002436 56.097985 
L 616.002227 59.783321 
L 616.002217 63.468657 
L 616.002217 67.153993 
L 616.002217 70.839328 
L 616.002217 74.524664 
L 616.002217 78.21 
L 616.002217 81.895336 
L 616.002217 85.580672 
L 616.002217 89.266007 
L 616.002217 92.951343 
L 616.00222 96.636679 
L 616.002349 100.322015 
L 616.002671 104.007351 
z
"/>
    </defs>
    <g clip-path="url(#p3c32685b25)">
     <use xlink:href="#m47c2db4148" x="0" y="553.92575" style="fill: #2c115f; fill-opacity: 0.8"/>
    </g>
   </g>
   <g id="LineCollection_1">
    <path d="M 112.295481 42.345058 
L 126.44214 42.345058 
" clip-path="url(#p3c32685b25)" style="fill: none; stroke: #000000"/>
   </g>
   <g id="LineCollection_2">
    <path d="M 183.200958 77.057384 
L 197.347618 77.057384 
" clip-path="url(#p3c32685b25)" style="fill: none; stroke: #000000"/>
   </g>
   <g id="LineCollection_3">
    <path d="M 254.106436 112.756934 
L 268.253095 112.756934 
" clip-path="url(#p3c32685b25)" style="fill: none; stroke: #000000"/>
   </g>
   <g id="LineCollection_4">
    <path d="M 325.011913 145.674102 
L 339.158573 145.674102 
" clip-path="url(#p3c32685b25)" style="fill: none; stroke: #000000"/>
   </g>
   <g id="LineCollection_5">
    <path d="M 395.917391 184.776838 
L 410.06405 184.776838 
" clip-path="url(#p3c32685b25)" style="fill: none; stroke: #000000"/>
   </g>
   <g id="LineCollection_6">
    <path d="M 466.822868 236.95385 
L 480.969528 236.95385 
" clip-path="url(#p3c32685b25)" style="fill: none; stroke: #000000"/>
   </g>
   <g id="LineCollection_7">
    <path d="M 537.728346 302.260963 
L 551.875005 302.260963 
" clip-path="url(#p3c32685b25)" style="fill: none; stroke: #000000"/>
   </g>
   <g id="LineCollection_8">
    <path d="M 608.633823 341.087791 
L 622.780482 341.087791 
" clip-path="url(#p3c32685b25)" style="fill: none; stroke: #000000"/>
   </g>
   <g id="patch_3">
    <path d="M 82.475 502.072 
L 82.475 0 
" style="fill: none; stroke: #262626; stroke-width: 2.5; stroke-linejoin: miter; stroke-linecap: square"/>
   </g>
   <g id="patch_4">
    <path d="M 82.475 502.072 
L 651.857472 502.072 
" style="fill: none; stroke: #262626; stroke-width: 2.5; stroke-linejoin: miter; stroke-linecap: square"/>
   </g>
   <g id="legend_1">
    <g id="text_11">
     <!-- ROI ($\alpha$) -->
     <g style="fill: #262626" transform="translate(574.136032 31.2)">
      <text>
       <tspan style="font: 20px 'NewComputerModernSans10'" x="0 12.919998 27.639999 33.199997 39.860001 60.423203" y="-0.0">ROI ()</tspan>
       <tspan style="font: 20px 'cmmi10'" x="47.639999" y="-0.0">®</tspan>
      </text>
     </g>
    </g>
    <g id="patch_5">
     <path d="M 524.076344 58.7 
L 560.076344 58.7 
L 560.076344 46.1 
L 524.076344 46.1 
z
" style="fill: #2c115f"/>
    </g>
    <g id="text_12">
     <text style="fill: #262626; font: 18px 'NewComputerModernSans10', sans-serif, 'NewComputerModernMath', serif; text-anchor: start" x="574.476344" y="58.7" transform="rotate(-0 574.476344 58.7)">early (-1.74)</text>
    </g>
    <g id="patch_6">
     <path d="M 524.076344 84.8 
L 560.076344 84.8 
L 560.076344 72.2 
L 524.076344 72.2 
z
" style="fill: #721f81"/>
    </g>
    <g id="text_13">
     <text style="fill: #262626; font: 18px 'NewComputerModernSans10', sans-serif, 'NewComputerModernMath', serif; text-anchor: start" x="574.476344" y="84.8" transform="rotate(-0 574.476344 84.8)">ventral</text>
    </g>
    <g id="patch_7">
     <path d="M 524.076344 109.893125 
L 560.076344 109.893125 
L 560.076344 97.293125 
L 524.076344 97.293125 
z
" style="fill: #b73779"/>
    </g>
    <g id="text_14">
     <text style="fill: #262626; font: 18px 'NewComputerModernSans10', sans-serif, 'NewComputerModernMath', serif; text-anchor: start" x="574.476344" y="109.893125" transform="rotate(-0 574.476344 109.893125)">lateral</text>
    </g>
    <g id="patch_8">
     <path d="M 524.076344 134.98625 
L 560.076344 134.98625 
L 560.076344 122.38625 
L 524.076344 122.38625 
z
" style="fill: #f1605d"/>
    </g>
    <g id="text_15">
     <text style="fill: #262626; font: 18px 'NewComputerModernSans10', sans-serif, 'NewComputerModernMath', serif; text-anchor: start" x="574.476344" y="134.98625" transform="rotate(-0 574.476344 134.98625)">temporoparietal</text>
    </g>
    <g id="patch_9">
     <path d="M 524.076344 160.079375 
L 560.076344 160.079375 
L 560.076344 147.479375 
L 524.076344 147.479375 
z
" style="fill: #feb078"/>
    </g>
    <g id="text_16">
     <text style="fill: #262626; font: 18px 'NewComputerModernSans10', sans-serif, 'NewComputerModernMath', serif; text-anchor: start" x="574.476344" y="160.079375" transform="rotate(-0 574.476344 160.079375)">posteromedial</text>
    </g>
   </g>
  </g>
 </g>
 <defs>
  <clipPath id="p3c32685b25">
   <rect x="82.475" y="0" width="569.382472" height="502.072"/>
  </clipPath>
 </defs>
</svg>
