<?xml version="1.0" encoding="utf-8" standalone="no"?>
<!DOCTYPE svg PUBLIC "-//W3C//DTD SVG 1.1//EN"
  "http://www.w3.org/Graphics/SVG/1.1/DTD/svg11.dtd">
<svg xmlns:xlink="http://www.w3.org/1999/xlink" width="698.013004pt" height="553.92575pt" viewBox="0 0 698.013004 553.92575" xmlns="http://www.w3.org/2000/svg" version="1.1">
 <metadata>
  <rdf:RDF xmlns:dc="http://purl.org/dc/elements/1.1/" xmlns:cc="http://creativecommons.org/ns#" xmlns:rdf="http://www.w3.org/1999/02/22-rdf-syntax-ns#">
   <cc:Work>
    <dc:type rdf:resource="http://purl.org/dc/dcmitype/StillImage"/>
    <dc:date>2025-04-11T18:14:32.222286</dc:date>
    <dc:format>image/svg+xml</dc:format>
    <dc:creator>
     <cc:Agent>
      <dc:title>Matplotlib v3.8.4, https://matplotlib.org/</dc:title>
     </cc:Agent>
    </dc:creator>
   </cc:Work>
  </rdf:RDF>
 </metadata>
 <defs>
  <style type="text/css">*{stroke-linejoin: round; stroke-linecap: butt}</style>
 </defs>
 <g id="figure_1">
  <g id="patch_1">
   <path d="M 0 553.92575 
L 698.013004 553.92575 
L 698.013004 0 
L 0 0 
L 0 553.92575 
z
" style="fill: none"/>
  </g>
  <g id="axes_1">
   <g id="patch_2">
    <path d="M 82.475 502.072 
L 688.713266 502.072 
L 688.713266 0 
L 82.475 0 
L 82.475 502.072 
z
" style="fill: none"/>
   </g>
   <g id="matplotlib.axis_1">
    <g id="xtick_1">
     <g id="line2d_1">
      <defs>
       <path id="m1cfcf98d53" d="M 0 0 
L 0 3.5 
" style="stroke: #262626"/>
      </defs>
      <g>
       <use xlink:href="#m1cfcf98d53" x="82.475" y="502.072" style="fill: #262626; stroke: #262626"/>
      </g>
     </g>
     <g id="text_1">
      <!-- $\mathdefault{10^{0}}$ -->
      <g style="fill: #262626" transform="translate(67.295 524.341375)">
       <text>
        <tspan style="font: 22px 'NewComputerModernSans10'" x="0 11" y="-0.71875">10</tspan>
        <tspan style="font: 15.4px 'NewComputerModernSans10'" x="22.170898" y="-7.5546875">0</tspan>
       </text>
      </g>
     </g>
    </g>
    <g id="xtick_2">
     <g id="line2d_2">
      <g>
       <use xlink:href="#m1cfcf98d53" x="282.594335" y="502.072" style="fill: #262626; stroke: #262626"/>
      </g>
     </g>
     <g id="text_2">
      <!-- $\mathdefault{10^{1}}$ -->
      <g style="fill: #262626" transform="translate(267.414335 524.341375)">
       <text>
        <tspan style="font: 22px 'NewComputerModernSans10'" x="0 11" y="-0.71875">10</tspan>
        <tspan style="font: 15.4px 'NewComputerModernSans10'" x="22.170898" y="-7.5546875">1</tspan>
       </text>
      </g>
     </g>
    </g>
    <g id="xtick_3">
     <g id="line2d_3">
      <g>
       <use xlink:href="#m1cfcf98d53" x="482.71367" y="502.072" style="fill: #262626; stroke: #262626"/>
      </g>
     </g>
     <g id="text_3">
      <!-- $\mathdefault{10^{2}}$ -->
      <g style="fill: #262626" transform="translate(467.53367 524.341375)">
       <text>
        <tspan style="font: 22px 'NewComputerModernSans10'" x="0 11" y="-0.71875">10</tspan>
        <tspan style="font: 15.4px 'NewComputerModernSans10'" x="22.170898" y="-7.5546875">2</tspan>
       </text>
      </g>
     </g>
    </g>
    <g id="xtick_4">
     <g id="line2d_4">
      <g>
       <use xlink:href="#m1cfcf98d53" x="682.833004" y="502.072" style="fill: #262626; stroke: #262626"/>
      </g>
     </g>
     <g id="text_4">
      <!-- $\mathdefault{10^{3}}$ -->
      <g style="fill: #262626" transform="translate(667.653004 524.341375)">
       <text>
        <tspan style="font: 22px 'NewComputerModernSans10'" x="0 11" y="-0.71875">10</tspan>
        <tspan style="font: 15.4px 'NewComputerModernSans10'" x="22.170898" y="-7.5546875">3</tspan>
       </text>
      </g>
     </g>
    </g>
    <g id="xtick_5">
     <g id="line2d_5"/>
    </g>
    <g id="xtick_6">
     <g id="line2d_6"/>
    </g>
    <g id="xtick_7">
     <g id="line2d_7"/>
    </g>
    <g id="xtick_8">
     <g id="line2d_8"/>
    </g>
    <g id="xtick_9">
     <g id="line2d_9"/>
    </g>
    <g id="xtick_10">
     <g id="line2d_10"/>
    </g>
    <g id="xtick_11">
     <g id="line2d_11"/>
    </g>
    <g id="xtick_12">
     <g id="line2d_12"/>
    </g>
    <g id="xtick_13">
     <g id="line2d_13"/>
    </g>
    <g id="xtick_14">
     <g id="line2d_14"/>
    </g>
    <g id="xtick_15">
     <g id="line2d_15"/>
    </g>
    <g id="xtick_16">
     <g id="line2d_16"/>
    </g>
    <g id="xtick_17">
     <g id="line2d_17"/>
    </g>
    <g id="xtick_18">
     <g id="line2d_18"/>
    </g>
    <g id="xtick_19">
     <g id="line2d_19"/>
    </g>
    <g id="xtick_20">
     <g id="line2d_20"/>
    </g>
    <g id="xtick_21">
     <g id="line2d_21"/>
    </g>
    <g id="xtick_22">
     <g id="line2d_22"/>
    </g>
    <g id="xtick_23">
     <g id="line2d_23"/>
    </g>
    <g id="xtick_24">
     <g id="line2d_24"/>
    </g>
    <g id="xtick_25">
     <g id="line2d_25"/>
    </g>
    <g id="xtick_26">
     <g id="line2d_26"/>
    </g>
    <g id="xtick_27">
     <g id="line2d_27"/>
    </g>
    <g id="xtick_28">
     <g id="line2d_28"/>
    </g>
    <g id="text_5">
     <text style="fill: #262626; font: 24px 'NewComputerModernSans10', sans-serif, 'NewComputerModernMath', serif; text-anchor: middle" x="385.594133" y="549.26825" transform="rotate(-0 385.594133 549.26825)">rank</text>
    </g>
   </g>
   <g id="matplotlib.axis_2">
    <g id="ytick_1">
     <g id="line2d_29">
      <defs>
       <path id="m9eb9e86c97" d="M 0 0 
L -3.5 0 
" style="stroke: #262626"/>
      </defs>
      <g>
       <use xlink:href="#m9eb9e86c97" x="82.475" y="502.072" style="fill: #262626; stroke: #262626"/>
      </g>
     </g>
     <g id="text_6">
      <!-- $\mathdefault{10^{-10}}$ -->
      <g style="fill: #262626" transform="translate(25.315 509.706687)">
       <text>
        <tspan style="font: 22px 'NewComputerModernSans10'" x="0 11" y="-0.71875">10</tspan>
        <tspan style="font: 15.4px 'NewComputerModernSans10'" x="22.170898 34.152097 41.852097" y="-7.5546875">−10</tspan>
       </text>
      </g>
     </g>
    </g>
    <g id="ytick_2">
     <g id="line2d_30">
      <g>
       <use xlink:href="#m9eb9e86c97" x="82.475" y="390.500444" style="fill: #262626; stroke: #262626"/>
      </g>
     </g>
     <g id="text_7">
      <!-- $\mathdefault{10^{-8}}$ -->
      <g style="fill: #262626" transform="translate(33.015 398.135132)">
       <text>
        <tspan style="font: 22px 'NewComputerModernSans10'" x="0 11" y="-0.71875">10</tspan>
        <tspan style="font: 15.4px 'NewComputerModernSans10'" x="22.170898 34.152097" y="-7.5546875">−8</tspan>
       </text>
      </g>
     </g>
    </g>
    <g id="ytick_3">
     <g id="line2d_31">
      <g>
       <use xlink:href="#m9eb9e86c97" x="82.475" y="278.928889" style="fill: #262626; stroke: #262626"/>
      </g>
     </g>
     <g id="text_8">
      <!-- $\mathdefault{10^{-6}}$ -->
      <g style="fill: #262626" transform="translate(33.015 286.563576)">
       <text>
        <tspan style="font: 22px 'NewComputerModernSans10'" x="0 11" y="-0.71875">10</tspan>
        <tspan style="font: 15.4px 'NewComputerModernSans10'" x="22.170898 34.152097" y="-7.5546875">−6</tspan>
       </text>
      </g>
     </g>
    </g>
    <g id="ytick_4">
     <g id="line2d_32">
      <g>
       <use xlink:href="#m9eb9e86c97" x="82.475" y="167.357333" style="fill: #262626; stroke: #262626"/>
      </g>
     </g>
     <g id="text_9">
      <!-- $\mathdefault{10^{-4}}$ -->
      <g style="fill: #262626" transform="translate(33.015 174.992021)">
       <text>
        <tspan style="font: 22px 'NewComputerModernSans10'" x="0 11" y="-0.05781250000000071">10</tspan>
        <tspan style="font: 15.4px 'NewComputerModernSans10'" x="22.170898 34.152097" y="-6.893750000000001">−4</tspan>
       </text>
      </g>
     </g>
    </g>
    <g id="ytick_5">
     <g id="line2d_33">
      <g>
       <use xlink:href="#m9eb9e86c97" x="82.475" y="55.785778" style="fill: #262626; stroke: #262626"/>
      </g>
     </g>
     <g id="text_10">
      <!-- $\mathdefault{10^{-2}}$ -->
      <g style="fill: #262626" transform="translate(33.015 63.420465)">
       <text>
        <tspan style="font: 22px 'NewComputerModernSans10'" x="0 11" y="-0.71875">10</tspan>
        <tspan style="font: 15.4px 'NewComputerModernSans10'" x="22.170898 34.152097" y="-7.5546875">−2</tspan>
       </text>
      </g>
     </g>
    </g>
    <g id="text_11">
     <text style="fill: #262626; font: 24px 'NewComputerModernSans10', sans-serif, 'NewComputerModernMath', serif; text-anchor: middle" x="16.6575" y="251.036" transform="rotate(-90 16.6575 251.036)">covariance</text>
    </g>
   </g>
   <g id="PathCollection_1">
    <defs>
     <path id="m39b3919823" d="M 0 6.123724 
C 1.624031 6.123724 3.181764 5.47849 4.330127 4.330127 
C 5.47849 3.181764 6.123724 1.624031 6.123724 0 
C 6.123724 -1.624031 5.47849 -3.181764 4.330127 -4.330127 
C 3.181764 -5.47849 1.624031 -6.123724 0 -6.123724 
C -1.624031 -6.123724 -3.181764 -5.47849 -4.330127 -4.330127 
C -5.47849 -3.181764 -6.123724 -1.624031 -6.123724 0 
C -6.123724 1.624031 -5.47849 3.181764 -4.330127 4.330127 
C -3.181764 5.47849 -1.624031 6.123724 0 6.123724 
z
"/>
    </defs>
    <g clip-path="url(#p16d2b8c925)">
     <use xlink:href="#m39b3919823" x="118.860334" y="38.621269" style="fill: #f1eff6; fill-opacity: 0.8"/>
     <use xlink:href="#m39b3919823" x="191.631001" y="68.744218" style="fill: #f1eff6; fill-opacity: 0.8"/>
     <use xlink:href="#m39b3919823" x="264.401668" y="108.207166" style="fill: #f1eff6; fill-opacity: 0.8"/>
     <use xlink:href="#m39b3919823" x="337.172335" y="140.307691" style="fill: #f1eff6; fill-opacity: 0.8"/>
     <use xlink:href="#m39b3919823" x="409.943002" y="176.971092" style="fill: #f1eff6; fill-opacity: 0.8"/>
     <use xlink:href="#m39b3919823" x="482.71367" y="232.815195" style="fill: #f1eff6; fill-opacity: 0.8"/>
     <use xlink:href="#m39b3919823" x="555.484337" y="310.246338" style="fill: #f1eff6; fill-opacity: 0.8"/>
     <use xlink:href="#m39b3919823" x="628.255004" y="338.282594" style="fill: #f1eff6; fill-opacity: 0.8"/>
     <use xlink:href="#m39b3919823" x="701.025671" y="369.99301" style="fill: #f1eff6; fill-opacity: 0.8"/>
    </g>
   </g>
   <g id="PathCollection_2">
    <defs>
     <path id="m2cf4496be7" d="M 0 6.123724 
C 1.624031 6.123724 3.181764 5.47849 4.330127 4.330127 
C 5.47849 3.181764 6.123724 1.624031 6.123724 0 
C 6.123724 -1.624031 5.47849 -3.181764 4.330127 -4.330127 
C 3.181764 -5.47849 1.624031 -6.123724 0 -6.123724 
C -1.624031 -6.123724 -3.181764 -5.47849 -4.330127 -4.330127 
C -5.47849 -3.181764 -6.123724 -1.624031 -6.123724 0 
C -6.123724 1.624031 -5.47849 3.181764 -4.330127 4.330127 
C -3.181764 5.47849 -1.624031 6.123724 0 6.123724 
z
"/>
    </defs>
    <g clip-path="url(#p16d2b8c925)">
     <use xlink:href="#m2cf4496be7" x="118.860334" y="40.223319" style="fill: #dfdfed; fill-opacity: 0.8"/>
     <use xlink:href="#m2cf4496be7" x="191.631001" y="70.236545" style="fill: #dfdfed; fill-opacity: 0.8"/>
     <use xlink:href="#m2cf4496be7" x="264.401668" y="112.108749" style="fill: #dfdfed; fill-opacity: 0.8"/>
     <use xlink:href="#m2cf4496be7" x="337.172335" y="139.097158" style="fill: #dfdfed; fill-opacity: 0.8"/>
     <use xlink:href="#m2cf4496be7" x="409.943002" y="175.165553" style="fill: #dfdfed; fill-opacity: 0.8"/>
     <use xlink:href="#m2cf4496be7" x="482.71367" y="232.18179" style="fill: #dfdfed; fill-opacity: 0.8"/>
     <use xlink:href="#m2cf4496be7" x="555.484337" y="295.310166" style="fill: #dfdfed; fill-opacity: 0.8"/>
     <use xlink:href="#m2cf4496be7" x="628.255004" y="312.767877" style="fill: #dfdfed; fill-opacity: 0.8"/>
     <use xlink:href="#m2cf4496be7" x="701.025671" y="345.425925" style="fill: #dfdfed; fill-opacity: 0.8"/>
    </g>
   </g>
   <g id="PathCollection_3">
    <defs>
     <path id="mbc6bcb433c" d="M 0 6.123724 
C 1.624031 6.123724 3.181764 5.47849 4.330127 4.330127 
C 5.47849 3.181764 6.123724 1.624031 6.123724 0 
C 6.123724 -1.624031 5.47849 -3.181764 4.330127 -4.330127 
C 3.181764 -5.47849 1.624031 -6.123724 0 -6.123724 
C -1.624031 -6.123724 -3.181764 -5.47849 -4.330127 -4.330127 
C -5.47849 -3.181764 -6.123724 -1.624031 -6.123724 0 
C -6.123724 1.624031 -5.47849 3.181764 -4.330127 4.330127 
C -3.181764 5.47849 -1.624031 6.123724 0 6.123724 
z
"/>
    </defs>
    <g clip-path="url(#p16d2b8c925)">
     <use xlink:href="#mbc6bcb433c" x="118.860334" y="32.961698" style="fill: #c6c7e1; fill-opacity: 0.8"/>
     <use xlink:href="#mbc6bcb433c" x="191.631001" y="67.430927" style="fill: #c6c7e1; fill-opacity: 0.8"/>
     <use xlink:href="#mbc6bcb433c" x="264.401668" y="109.197083" style="fill: #c6c7e1; fill-opacity: 0.8"/>
     <use xlink:href="#mbc6bcb433c" x="337.172335" y="137.405912" style="fill: #c6c7e1; fill-opacity: 0.8"/>
     <use xlink:href="#mbc6bcb433c" x="409.943002" y="172.479471" style="fill: #c6c7e1; fill-opacity: 0.8"/>
     <use xlink:href="#mbc6bcb433c" x="482.71367" y="224.802658" style="fill: #c6c7e1; fill-opacity: 0.8"/>
     <use xlink:href="#mbc6bcb433c" x="555.484337" y="304.477732" style="fill: #c6c7e1; fill-opacity: 0.8"/>
     <use xlink:href="#mbc6bcb433c" x="628.255004" y="340.325787" style="fill: #c6c7e1; fill-opacity: 0.8"/>
     <use xlink:href="#mbc6bcb433c" x="701.025671" y="337.576457" style="fill: #c6c7e1; fill-opacity: 0.8"/>
    </g>
   </g>
   <g id="PathCollection_4">
    <defs>
     <path id="m7251bb089b" d="M 0 6.123724 
C 1.624031 6.123724 3.181764 5.47849 4.330127 4.330127 
C 5.47849 3.181764 6.123724 1.624031 6.123724 0 
C 6.123724 -1.624031 5.47849 -3.181764 4.330127 -4.330127 
C 3.181764 -5.47849 1.624031 -6.123724 0 -6.123724 
C -1.624031 -6.123724 -3.181764 -5.47849 -4.330127 -4.330127 
C -5.47849 -3.181764 -6.123724 -1.624031 -6.123724 0 
C -6.123724 1.624031 -5.47849 3.181764 -4.330127 4.330127 
C -3.181764 5.47849 -1.624031 6.123724 0 6.123724 
z
"/>
    </defs>
    <g clip-path="url(#p16d2b8c925)">
     <use xlink:href="#m7251bb089b" x="118.860334" y="38.880335" style="fill: #acaad1; fill-opacity: 0.8"/>
     <use xlink:href="#m7251bb089b" x="191.631001" y="71.556473" style="fill: #acaad1; fill-opacity: 0.8"/>
     <use xlink:href="#m7251bb089b" x="264.401668" y="112.835378" style="fill: #acaad1; fill-opacity: 0.8"/>
     <use xlink:href="#m7251bb089b" x="337.172335" y="140.955878" style="fill: #acaad1; fill-opacity: 0.8"/>
     <use xlink:href="#m7251bb089b" x="409.943002" y="178.279824" style="fill: #acaad1; fill-opacity: 0.8"/>
     <use xlink:href="#m7251bb089b" x="482.71367" y="229.131517" style="fill: #acaad1; fill-opacity: 0.8"/>
     <use xlink:href="#m7251bb089b" x="555.484337" y="332.123094" style="fill: #acaad1; fill-opacity: 0.8"/>
     <use xlink:href="#m7251bb089b" x="628.255004" y="372.853816" style="fill: #acaad1; fill-opacity: 0.8"/>
    </g>
   </g>
   <g id="PathCollection_5">
    <defs>
     <path id="m0a7c56a7f2" d="M 0 6.123724 
C 1.624031 6.123724 3.181764 5.47849 4.330127 4.330127 
C 5.47849 3.181764 6.123724 1.624031 6.123724 0 
C 6.123724 -1.624031 5.47849 -3.181764 4.330127 -4.330127 
C 3.181764 -5.47849 1.624031 -6.123724 0 -6.123724 
C -1.624031 -6.123724 -3.181764 -5.47849 -4.330127 -4.330127 
C -5.47849 -3.181764 -6.123724 -1.624031 -6.123724 0 
C -6.123724 1.624031 -5.47849 3.181764 -4.330127 4.330127 
C -3.181764 5.47849 -1.624031 6.123724 0 6.123724 
z
"/>
    </defs>
    <g clip-path="url(#p16d2b8c925)">
     <use xlink:href="#m0a7c56a7f2" x="118.860334" y="43.70345" style="fill: #908dc2; fill-opacity: 0.8"/>
     <use xlink:href="#m0a7c56a7f2" x="191.631001" y="71.149455" style="fill: #908dc2; fill-opacity: 0.8"/>
     <use xlink:href="#m0a7c56a7f2" x="264.401668" y="114.436514" style="fill: #908dc2; fill-opacity: 0.8"/>
     <use xlink:href="#m0a7c56a7f2" x="337.172335" y="140.219817" style="fill: #908dc2; fill-opacity: 0.8"/>
     <use xlink:href="#m0a7c56a7f2" x="409.943002" y="176.510513" style="fill: #908dc2; fill-opacity: 0.8"/>
     <use xlink:href="#m0a7c56a7f2" x="482.71367" y="232.081539" style="fill: #908dc2; fill-opacity: 0.8"/>
     <use xlink:href="#m0a7c56a7f2" x="555.484337" y="334.174428" style="fill: #908dc2; fill-opacity: 0.8"/>
     <use xlink:href="#m0a7c56a7f2" x="701.025671" y="335.837161" style="fill: #908dc2; fill-opacity: 0.8"/>
    </g>
   </g>
   <g id="PathCollection_6">
    <defs>
     <path id="mc10fbc97cd" d="M 0 6.123724 
C 1.624031 6.123724 3.181764 5.47849 4.330127 4.330127 
C 5.47849 3.181764 6.123724 1.624031 6.123724 0 
C 6.123724 -1.624031 5.47849 -3.181764 4.330127 -4.330127 
C 3.181764 -5.47849 1.624031 -6.123724 0 -6.123724 
C -1.624031 -6.123724 -3.181764 -5.47849 -4.330127 -4.330127 
C -5.47849 -3.181764 -6.123724 -1.624031 -6.123724 0 
C -6.123724 1.624031 -5.47849 3.181764 -4.330127 4.330127 
C -3.181764 5.47849 -1.624031 6.123724 0 6.123724 
z
"/>
    </defs>
    <g clip-path="url(#p16d2b8c925)">
     <use xlink:href="#mc10fbc97cd" x="118.860334" y="37.387765" style="fill: #796eb2; fill-opacity: 0.8"/>
     <use xlink:href="#mc10fbc97cd" x="191.631001" y="71.421951" style="fill: #796eb2; fill-opacity: 0.8"/>
     <use xlink:href="#mc10fbc97cd" x="264.401668" y="112.627216" style="fill: #796eb2; fill-opacity: 0.8"/>
     <use xlink:href="#mc10fbc97cd" x="337.172335" y="143.035575" style="fill: #796eb2; fill-opacity: 0.8"/>
     <use xlink:href="#mc10fbc97cd" x="409.943002" y="180.662926" style="fill: #796eb2; fill-opacity: 0.8"/>
     <use xlink:href="#mc10fbc97cd" x="482.71367" y="239.172745" style="fill: #796eb2; fill-opacity: 0.8"/>
     <use xlink:href="#mc10fbc97cd" x="555.484337" y="299.746582" style="fill: #796eb2; fill-opacity: 0.8"/>
     <use xlink:href="#mc10fbc97cd" x="628.255004" y="393.201811" style="fill: #796eb2; fill-opacity: 0.8"/>
    </g>
   </g>
   <g id="PathCollection_7">
    <defs>
     <path id="m9a9ba8a45e" d="M 0 6.123724 
C 1.624031 6.123724 3.181764 5.47849 4.330127 4.330127 
C 5.47849 3.181764 6.123724 1.624031 6.123724 0 
C 6.123724 -1.624031 5.47849 -3.181764 4.330127 -4.330127 
C 3.181764 -5.47849 1.624031 -6.123724 0 -6.123724 
C -1.624031 -6.123724 -3.181764 -5.47849 -4.330127 -4.330127 
C -5.47849 -3.181764 -6.123724 -1.624031 -6.123724 0 
C -6.123724 1.624031 -5.47849 3.181764 -4.330127 4.330127 
C -3.181764 5.47849 -1.624031 6.123724 0 6.123724 
z
"/>
    </defs>
    <g clip-path="url(#p16d2b8c925)">
     <use xlink:href="#m9a9ba8a45e" x="118.860334" y="47.469309" style="fill: #65479e; fill-opacity: 0.8"/>
     <use xlink:href="#m9a9ba8a45e" x="191.631001" y="74.560827" style="fill: #65479e; fill-opacity: 0.8"/>
     <use xlink:href="#m9a9ba8a45e" x="264.401668" y="107.232343" style="fill: #65479e; fill-opacity: 0.8"/>
     <use xlink:href="#m9a9ba8a45e" x="337.172335" y="141.57488" style="fill: #65479e; fill-opacity: 0.8"/>
     <use xlink:href="#m9a9ba8a45e" x="409.943002" y="184.689492" style="fill: #65479e; fill-opacity: 0.8"/>
     <use xlink:href="#m9a9ba8a45e" x="482.71367" y="249.890553" style="fill: #65479e; fill-opacity: 0.8"/>
     <use xlink:href="#m9a9ba8a45e" x="555.484337" y="298.635249" style="fill: #65479e; fill-opacity: 0.8"/>
     <use xlink:href="#m9a9ba8a45e" x="628.255004" y="349.480402" style="fill: #65479e; fill-opacity: 0.8"/>
    </g>
   </g>
   <g id="PathCollection_8">
    <defs>
     <path id="ma732dd5875" d="M 0 6.123724 
C 1.624031 6.123724 3.181764 5.47849 4.330127 4.330127 
C 5.47849 3.181764 6.123724 1.624031 6.123724 0 
C 6.123724 -1.624031 5.47849 -3.181764 4.330127 -4.330127 
C 3.181764 -5.47849 1.624031 -6.123724 0 -6.123724 
C -1.624031 -6.123724 -3.181764 -5.47849 -4.330127 -4.330127 
C -5.47849 -3.181764 -6.123724 -1.624031 -6.123724 0 
C -6.123724 1.624031 -5.47849 3.181764 -4.330127 4.330127 
C -3.181764 5.47849 -1.624031 6.123724 0 6.123724 
z
"/>
    </defs>
    <g clip-path="url(#p16d2b8c925)">
     <use xlink:href="#ma732dd5875" x="118.860334" y="37.515984" style="fill: #51228d; fill-opacity: 0.8"/>
     <use xlink:href="#ma732dd5875" x="191.631001" y="68.998128" style="fill: #51228d; fill-opacity: 0.8"/>
     <use xlink:href="#ma732dd5875" x="264.401668" y="109.633347" style="fill: #51228d; fill-opacity: 0.8"/>
     <use xlink:href="#ma732dd5875" x="337.172335" y="145.466967" style="fill: #51228d; fill-opacity: 0.8"/>
     <use xlink:href="#ma732dd5875" x="409.943002" y="176.056482" style="fill: #51228d; fill-opacity: 0.8"/>
     <use xlink:href="#ma732dd5875" x="482.71367" y="239.671792" style="fill: #51228d; fill-opacity: 0.8"/>
     <use xlink:href="#ma732dd5875" x="555.484337" y="297.537371" style="fill: #51228d; fill-opacity: 0.8"/>
     <use xlink:href="#ma732dd5875" x="628.255004" y="324.469866" style="fill: #51228d; fill-opacity: 0.8"/>
     <use xlink:href="#ma732dd5875" x="701.025671" y="368.42703" style="fill: #51228d; fill-opacity: 0.8"/>
    </g>
   </g>
   <g id="patch_3">
    <path d="M 82.475 502.072 
L 82.475 0 
" style="fill: none; stroke: #262626; stroke-width: 2.5; stroke-linejoin: miter; stroke-linecap: square"/>
   </g>
   <g id="patch_4">
    <path d="M 82.475 502.072 
L 688.713266 502.072 
" style="fill: none; stroke: #262626; stroke-width: 2.5; stroke-linejoin: miter; stroke-linecap: square"/>
   </g>
   <g id="legend_1">
    <g id="text_12">
     <text style="fill: #262626; font: 20px 'NewComputerModernSans10', sans-serif, 'NewComputerModernMath', serif; text-anchor: start" x="546.661704" y="30.08125" transform="rotate(-0 546.661704 30.08125)">subject pair</text>
    </g>
    <g id="PathCollection_9">
     <g>
      <use xlink:href="#m39b3919823" x="535.713266" y="51.05625" style="fill: #f1eff6; fill-opacity: 0.8"/>
     </g>
    </g>
    <g id="text_13">
     <text style="fill: #262626; font: 18px 'NewComputerModernSans10', sans-serif, 'NewComputerModernMath', serif; text-anchor: start" x="568.113266" y="55.78125" transform="rotate(-0 568.113266 55.78125)">1</text>
    </g>
    <g id="PathCollection_10">
     <g>
      <use xlink:href="#m2cf4496be7" x="535.713266" y="76.149375" style="fill: #dfdfed; fill-opacity: 0.8"/>
     </g>
    </g>
    <g id="text_14">
     <text style="fill: #262626; font: 18px 'NewComputerModernSans10', sans-serif, 'NewComputerModernMath', serif; text-anchor: start" x="568.113266" y="80.874375" transform="rotate(-0 568.113266 80.874375)">2</text>
    </g>
    <g id="PathCollection_11">
     <g>
      <use xlink:href="#mbc6bcb433c" x="535.713266" y="101.2425" style="fill: #c6c7e1; fill-opacity: 0.8"/>
     </g>
    </g>
    <g id="text_15">
     <text style="fill: #262626; font: 18px 'NewComputerModernSans10', sans-serif, 'NewComputerModernMath', serif; text-anchor: start" x="568.113266" y="105.9675" transform="rotate(-0 568.113266 105.9675)">3</text>
    </g>
    <g id="PathCollection_12">
     <g>
      <use xlink:href="#m7251bb089b" x="535.713266" y="126.335625" style="fill: #acaad1; fill-opacity: 0.8"/>
     </g>
    </g>
    <g id="text_16">
     <text style="fill: #262626; font: 18px 'NewComputerModernSans10', sans-serif, 'NewComputerModernMath', serif; text-anchor: start" x="568.113266" y="131.060625" transform="rotate(-0 568.113266 131.060625)">4</text>
    </g>
    <g id="PathCollection_13">
     <g>
      <use xlink:href="#m0a7c56a7f2" x="631.113266" y="51.05625" style="fill: #908dc2; fill-opacity: 0.8"/>
     </g>
    </g>
    <g id="text_17">
     <text style="fill: #262626; font: 18px 'NewComputerModernSans10', sans-serif, 'NewComputerModernMath', serif; text-anchor: start" x="663.513266" y="55.78125" transform="rotate(-0 663.513266 55.78125)">5</text>
    </g>
    <g id="PathCollection_14">
     <g>
      <use xlink:href="#mc10fbc97cd" x="631.113266" y="76.149375" style="fill: #796eb2; fill-opacity: 0.8"/>
     </g>
    </g>
    <g id="text_18">
     <text style="fill: #262626; font: 18px 'NewComputerModernSans10', sans-serif, 'NewComputerModernMath', serif; text-anchor: start" x="663.513266" y="80.874375" transform="rotate(-0 663.513266 80.874375)">6</text>
    </g>
    <g id="PathCollection_15">
     <g>
      <use xlink:href="#m9a9ba8a45e" x="631.113266" y="101.2425" style="fill: #65479e; fill-opacity: 0.8"/>
     </g>
    </g>
    <g id="text_19">
     <text style="fill: #262626; font: 18px 'NewComputerModernSans10', sans-serif, 'NewComputerModernMath', serif; text-anchor: start" x="663.513266" y="105.9675" transform="rotate(-0 663.513266 105.9675)">7</text>
    </g>
    <g id="PathCollection_16">
     <g>
      <use xlink:href="#ma732dd5875" x="631.113266" y="126.335625" style="fill: #51228d; fill-opacity: 0.8"/>
     </g>
    </g>
    <g id="text_20">
     <text style="fill: #262626; font: 18px 'NewComputerModernSans10', sans-serif, 'NewComputerModernMath', serif; text-anchor: start" x="663.513266" y="131.060625" transform="rotate(-0 663.513266 131.060625)">8</text>
    </g>
   </g>
  </g>
 </g>
 <defs>
  <clipPath id="p16d2b8c925">
   <rect x="82.475" y="0" width="606.238266" height="502.072"/>
  </clipPath>
 </defs>
</svg>
